<svg width="1280" height="720" xmlns="http://www.w3.org/2000/svg" xmlns:xlink="http://www.w3.org/1999/xlink" overflow="hidden"><defs><clipPath id="clip0"><path d="M0 0 1280 0 1280 720 0 720Z" fill-rule="evenodd" clip-rule="evenodd"/></clipPath></defs><g clip-path="url(#clip0)"><rect x="0" y="0" width="1280" height="720" fill="#FFFFFF"/><path d="M358.5 417.5 605.5 417.5 667.5 479.5 605.5 541.5 358.5 541.5 420.5 479.5Z" stroke="#FFFFFF" stroke-miterlimit="8" fill="#9C85C0" fill-rule="evenodd"/><text fill="#FFFFFF" font-family="Noto Serif CJK JP,Noto Serif CJK JP_MSFontService,sans-serif" font-weight="500" font-size="27" transform="translate(475.095 489)">点推定<tspan fill="#000000" x="-117.333" y="100">•</tspan><tspan fill="#000000" x="-93.3326" y="100">母平均の点推定</tspan><tspan fill="#000000" x="-117.333" y="152">•</tspan><tspan fill="#000000" x="-93.3326" y="152">母分散の点推定</tspan></text><path d="M656.5 417.5 903.5 417.5 965.5 479.5 903.5 541.5 656.5 541.5 718.5 479.5Z" stroke="#FFFFFF" stroke-miterlimit="8" fill="#8385C1" fill-rule="evenodd"/><text fill="#FFFFFF" font-family="Noto Serif CJK JP,Noto Serif CJK JP_MSFontService,sans-serif" font-weight="500" font-size="27" transform="translate(733.628 466)">区間推定と信<tspan x="40" y="45">頼区間</tspan><tspan fill="#000000" x="-89.4777" y="123">•</tspan><tspan fill="#000000" x="-65.4777" y="123">母平均の区間推定</tspan><tspan fill="#000000" x="-89.4777" y="175">•</tspan><tspan fill="#000000" x="-65.4777" y="175">母分散の区間推定</tspan></text><path d="M943.5 417.5 1190.5 417.5 1252.5 479.5 1190.5 541.5 943.5 541.5 1005.5 479.5Z" stroke="#FFFFFF" stroke-miterlimit="8" fill="#809EC2" fill-rule="evenodd"/><text fill="#FFFFFF" font-family="Noto Serif CJK JP,Noto Serif CJK JP_MSFontService,sans-serif" font-weight="500" font-size="27" transform="translate(1020.02 466)">推定結果の<tspan x="133.333" y="0">可</tspan><tspan x="53.3333" y="45">視化</tspan><tspan fill="#000000" x="-65.7501" y="123">•</tspan><tspan fill="#000000" x="-41.7501" y="123">エラーバー付き</tspan><tspan fill="#000000" x="-41.7501" y="168">折れ線グラフ</tspan><tspan fill="#000000" font-weight="700" font-size="43" x="-490.763" y="-333">母集団推定</tspan></text><path d="M12.5001 222.5 257.5 222.5 318.5 283.5 257.5 344.5 12.5001 344.5 73.4999 283.5Z" stroke="#FFFFFF" stroke-miterlimit="8" fill="#E7BC29" fill-rule="evenodd"/><text fill="#FFFFFF" font-family="Noto Serif CJK JP,Noto Serif CJK JP_MSFontService,sans-serif" font-weight="500" font-size="27" transform="translate(87.8014 271)">ライブラリの<tspan x="26.6667" y="45">読み込み</tspan></text><path d="M287.5 222.5 531.5 222.5 592.5 283.5 531.5 344.5 287.5 344.5 348.5 283.5Z" stroke="#FFFFFF" stroke-miterlimit="8" fill="#62BED7" fill-rule="evenodd"/><text fill="#FFFFFF" font-family="Noto Serif CJK JP,Noto Serif CJK JP_MSFontService,sans-serif" font-weight="500" font-size="27" transform="translate(362.329 271)">データの読み<tspan x="53.3333" y="45">込み</tspan></text><path d="M562.5 222.5 806.5 222.5 867.5 283.5 806.5 344.5 562.5 344.5 623.5 283.5Z" stroke="#FFFFFF" stroke-miterlimit="8" fill="#D092A7" fill-rule="evenodd"/><text fill="#FFFFFF" font-family="Noto Serif CJK JP,Noto Serif CJK JP_MSFontService,sans-serif" font-weight="500" font-size="27" transform="translate(636.858 271)">データの下処<tspan x="66.6667" y="45">理</tspan><tspan fill="#000000" font-size="32" x="-551.488" y="-66">Chap.1</tspan><tspan fill="#000000" font-size="32" x="-278.349" y="-66">Chap.2</tspan><tspan fill="#000000" font-size="32" x="17.9242" y="-66">Chap.3</tspan><tspan fill="#000000" font-size="32" x="-179.723" y="123">Chap.4</tspan><tspan fill="#000000" font-size="32" x="93.4153" y="123">Chap.5</tspan><tspan fill="#000000" font-size="32" x="389.689" y="123">Chap.6</tspan></text></g></svg>