<svg width="1280" height="720" xmlns="http://www.w3.org/2000/svg" xmlns:xlink="http://www.w3.org/1999/xlink" overflow="hidden"><defs><clipPath id="clip0"><path d="M0 0 1280 0 1280 720 0 720Z" fill-rule="evenodd" clip-rule="evenodd"/></clipPath></defs><g clip-path="url(#clip0)"><rect x="0" y="0" width="1280" height="720" fill="#FFFFFF"/><path d="M0.500053 273.5 218.5 273.5 272.5 327.5 218.5 381.5 0.500053 381.5 54.5 327.5Z" stroke="#FFFFFF" stroke-miterlimit="8" fill="#F3A447" fill-rule="evenodd"/><text fill="#FFFFFF" font-family="Noto Serif CJK JP,Noto Serif CJK JP_MSFontService,sans-serif" font-weight="500" font-size="27" transform="translate(72.3957 315)">ライブラリ<tspan x="0" y="45">の読み込み</tspan></text><path d="M250.5 273.5 467.5 273.5 521.5 327.5 467.5 381.5 250.5 381.5 304.5 327.5Z" stroke="#FFFFFF" stroke-miterlimit="8" fill="#E7BC29" fill-rule="evenodd"/><text fill="#FFFFFF" font-family="Noto Serif CJK JP,Noto Serif CJK JP_MSFontService,sans-serif" font-weight="500" font-size="27" transform="translate(334.927 315)">データの<tspan x="0" y="45">読み込み</tspan></text><path d="M499.5 273.5 717.5 273.5 771.5 327.5 717.5 381.5 499.5 381.5 553.5 327.5Z" stroke="#FFFFFF" stroke-miterlimit="8" fill="#D092A7" fill-rule="evenodd"/><text fill="#FFFFFF" font-family="Noto Serif CJK JP,Noto Serif CJK JP_MSFontService,sans-serif" font-weight="500" font-size="27" transform="translate(584.125 315)">データの<tspan x="13.3334" y="45">下処理</tspan></text><path d="M759.5 273.5 976.5 273.5 1030.5 327.5 976.5 381.5 759.5 381.5 813.5 327.5Z" stroke="#FFFFFF" stroke-miterlimit="8" fill="#9C85C0" fill-rule="evenodd"/><text fill="#FFFFFF" font-family="Noto Serif CJK JP,Noto Serif CJK JP_MSFontService,sans-serif" font-weight="500" font-size="27" transform="translate(830.673 315)">データ概要<tspan x="13.3333" y="45">の</tspan><tspan x="40" y="45">可視化</tspan><tspan fill="#000000" x="-82.7545" y="113">•</tspan><tspan fill="#000000" x="-58.7545" y="113">散布図</tspan></text><path d="M1008.5 273.5 1226.5 273.5 1280.5 327.5 1226.5 381.5 1008.5 381.5 1062.5 327.5Z" stroke="#FFFFFF" stroke-miterlimit="8" fill="#809EC2" fill-rule="evenodd"/><text fill="#FFFFFF" font-family="Noto Serif CJK JP,Noto Serif CJK JP_MSFontService,sans-serif" font-weight="500" font-size="27" transform="translate(1079.87 337)">主成分分析<tspan fill="#000000" x="-72.0708" y="91">•</tspan><tspan fill="#000000" x="-48.0708" y="91">主成分分析</tspan><tspan fill="#000000" x="-72.0708" y="136">•</tspan><tspan fill="#000000" x="-48.0708" y="136">固有値</tspan><tspan fill="#000000" x="-72.0708" y="180">•</tspan><tspan fill="#000000" x="-48.0708" y="180">固有ベクトル</tspan><tspan fill="#000000" x="-72.0708" y="225">•</tspan><tspan fill="#000000" x="-48.0708" y="225">寄与率</tspan><tspan fill="#000000" font-weight="700" font-size="43" x="-550.618" y="-204">主成分分析</tspan><tspan fill="#000000" font-size="32" x="-998.741" y="-86">Chap.1</tspan><tspan fill="#000000" font-size="32" x="-747.231" y="-86">Chap.2</tspan><tspan fill="#000000" font-size="32" x="-516.584" y="-86">Chap.3</tspan><tspan fill="#000000" font-size="32" x="-244.859" y="-86">Chap.4</tspan><tspan fill="#000000" font-size="32" x="-17.0941" y="-86">Chap.5</tspan></text></g></svg>