<svg width="1280" height="720" xmlns="http://www.w3.org/2000/svg" xmlns:xlink="http://www.w3.org/1999/xlink" overflow="hidden"><defs><clipPath id="clip0"><path d="M0 0 1280 0 1280 720 0 720Z" fill-rule="evenodd" clip-rule="evenodd"/></clipPath></defs><g clip-path="url(#clip0)"><rect x="0" y="0" width="1280" height="720" fill="#FFFFFF"/><path d="M0.500053 279.5 212.5 279.5 265.5 332.5 212.5 385.5 0.500053 385.5 53.5001 332.5Z" stroke="#FFFFFF" stroke-miterlimit="8" fill="#F3A447" fill-rule="evenodd"/><text fill="#FFFFFF" font-family="Noto Serif CJK JP,Noto Serif CJK JP_MSFontService,sans-serif" font-weight="500" font-size="27" transform="translate(68.5056 320)">ライブラリ<tspan x="0" y="45">の読み込み</tspan></text><path d="M242.5 279.5 454.5 279.5 507.5 332.5 454.5 385.5 242.5 385.5 295.5 332.5Z" stroke="#FFFFFF" stroke-miterlimit="8" fill="#E7BC29" fill-rule="evenodd"/><text fill="#FFFFFF" font-family="Noto Serif CJK JP,Noto Serif CJK JP_MSFontService,sans-serif" font-weight="500" font-size="27" transform="translate(323.849 320)">データの<tspan x="0" y="45">読み込み</tspan></text><path d="M484.5 279.5 696.5 279.5 749.5 332.5 696.5 385.5 484.5 385.5 537.5 332.5Z" stroke="#FFFFFF" stroke-miterlimit="8" fill="#D092A7" fill-rule="evenodd"/><text fill="#FFFFFF" font-family="Noto Serif CJK JP,Noto Serif CJK JP_MSFontService,sans-serif" font-weight="500" font-size="27" transform="translate(565.86 320)">データの<tspan x="13.3334" y="45">下処理</tspan></text><path d="M751.5 279.5 963.5 279.5 1016.5 332.5 963.5 385.5 751.5 385.5 804.5 332.5Z" stroke="#FFFFFF" stroke-miterlimit="8" fill="#9C85C0" fill-rule="evenodd"/><text fill="#FFFFFF" font-family="Noto Serif CJK JP,Noto Serif CJK JP_MSFontService,sans-serif" font-weight="500" font-size="27" transform="translate(833.101 320)">地図への<tspan x="0" y="45">プロット</tspan><tspan fill="#000000" x="-107.041" y="111">•</tspan><tspan fill="#000000" x="-83.0414" y="111">散布図</tspan><tspan fill="#000000" x="-107.041" y="163">•</tspan><tspan fill="#000000" x="-83.0414" y="163">正距円筒図（地</tspan><tspan fill="#000000" x="-83.0414" y="208">図）</tspan></text><path d="M1015.5 279.5 1227.5 279.5 1280.5 332.5 1227.5 385.5 1015.5 385.5 1068.5 332.5Z" stroke="#FFFFFF" stroke-miterlimit="8" fill="#809EC2" fill-rule="evenodd"/><text fill="#FFFFFF" font-family="Noto Serif CJK JP,Noto Serif CJK JP_MSFontService,sans-serif" font-weight="500" font-size="27" transform="translate(1097.09 320)">まとめて<tspan x="26.6667" y="45">出力</tspan><tspan fill="#000000" x="-103.793" y="111">•</tspan><tspan fill="#000000" x="-79.7931" y="111">2</tspan><tspan fill="#000000" x="-65.1531" y="111">×</tspan><tspan fill="#000000" x="-38.4865" y="111">2</tspan><tspan fill="#000000" x="-23.8464" y="111">で並べた地図</tspan><tspan fill="#000000" font-weight="700" font-size="43" x="-656.364" y="-181">地図上へのプロット</tspan><tspan fill="#000000" font-size="32" x="-1015.96" y="-58">Chap.1</tspan><tspan fill="#000000" font-size="32" x="-764.455" y="-58">Chap.2</tspan><tspan fill="#000000" font-size="32" x="-533.808" y="-58">Chap.3</tspan><tspan fill="#000000" font-size="32" x="-262.082" y="-58">Chap.4</tspan><tspan fill="#000000" font-size="32" x="-34.3177" y="-58">Chap.5</tspan></text></g></svg>