<svg width="1280" height="720" xmlns="http://www.w3.org/2000/svg" xmlns:xlink="http://www.w3.org/1999/xlink" overflow="hidden"><defs><clipPath id="clip0"><path d="M0 0 1280 0 1280 720 0 720Z" fill-rule="evenodd" clip-rule="evenodd"/></clipPath></defs><g clip-path="url(#clip0)"><rect x="0" y="0" width="1280" height="720" fill="#FFFFFF"/><path d="M0.500053 278.5 218.5 278.5 272.5 332.5 218.5 386.5 0.500053 386.5 54.5 332.5Z" stroke="#FFFFFF" stroke-miterlimit="8" fill="#F3A447" fill-rule="evenodd"/><text fill="#FFFFFF" font-family="Noto Serif CJK JP,Noto Serif CJK JP_MSFontService,sans-serif" font-weight="500" font-size="27" transform="translate(72.3958 320)">ライブラリ<tspan x="0" y="45">の読み込み</tspan></text><path d="M250.5 278.5 467.5 278.5 521.5 332.5 467.5 386.5 250.5 386.5 304.5 332.5Z" stroke="#FFFFFF" stroke-miterlimit="8" fill="#E7BC29" fill-rule="evenodd"/><text fill="#FFFFFF" font-family="Noto Serif CJK JP,Noto Serif CJK JP_MSFontService,sans-serif" font-weight="500" font-size="27" transform="translate(334.927 320)">データの<tspan x="0" y="45">読み込み</tspan></text><path d="M499.5 278.5 717.5 278.5 771.5 332.5 717.5 386.5 499.5 386.5 553.5 332.5Z" stroke="#FFFFFF" stroke-miterlimit="8" fill="#D092A7" fill-rule="evenodd"/><text fill="#FFFFFF" font-family="Noto Serif CJK JP,Noto Serif CJK JP_MSFontService,sans-serif" font-weight="500" font-size="27" transform="translate(584.125 320)">データの<tspan x="13.3334" y="45">下処理</tspan></text><path d="M759.5 278.5 976.5 278.5 1030.5 332.5 976.5 386.5 759.5 386.5 813.5 332.5Z" stroke="#FFFFFF" stroke-miterlimit="8" fill="#9C85C0" fill-rule="evenodd"/><text fill="#FFFFFF" font-family="Noto Serif CJK JP,Noto Serif CJK JP_MSFontService,sans-serif" font-weight="500" font-size="27" transform="translate(828.273 320)">ΣDDTs<tspan x="84.8" y="0">濃度</tspan><tspan x="15.7333" y="45">の可視化</tspan><tspan fill="#000000" x="-80.3544" y="113">•</tspan><tspan fill="#000000" x="-56.3544" y="113">基本統計量</tspan><tspan fill="#000000" x="-80.3544" y="165">•</tspan><tspan fill="#000000" x="-56.3544" y="165">散布図</tspan><tspan fill="#000000" x="-80.3544" y="217">•</tspan><tspan fill="#000000" x="-56.3544" y="217">箱ひげ図</tspan></text><path d="M1008.5 278.5 1226.5 278.5 1280.5 332.5 1226.5 386.5 1008.5 386.5 1062.5 332.5Z" stroke="#FFFFFF" stroke-miterlimit="8" fill="#809EC2" fill-rule="evenodd"/><text fill="#FFFFFF" font-family="Noto Serif CJK JP,Noto Serif CJK JP_MSFontService,sans-serif" font-weight="500" font-size="27" transform="translate(1079.87 320)">各化学物質<tspan x="13.3334" y="45">の可視化</tspan><tspan fill="#000000" x="-72.0709" y="113">•</tspan><tspan fill="#000000" x="-48.0708" y="113">箱ひげ図</tspan><tspan fill="#000000" font-weight="700" font-size="43" x="-550.618" y="-187">基本統計量</tspan><tspan fill="#000000" font-size="32" x="-999.682" y="-70">Chap.1</tspan><tspan fill="#000000" font-size="32" x="-748.172" y="-70">Chap.2</tspan><tspan fill="#000000" font-size="32" x="-517.526" y="-70">Chap.3</tspan><tspan fill="#000000" font-size="32" x="-245.8" y="-70">Chap.4</tspan><tspan fill="#000000" font-size="32" x="-18.0354" y="-70">Chap.5</tspan></text></g></svg>