<svg width="1280" height="720" xmlns="http://www.w3.org/2000/svg" xmlns:xlink="http://www.w3.org/1999/xlink" overflow="hidden"><defs><clipPath id="clip0"><path d="M0 0 1280 0 1280 720 0 720Z" fill-rule="evenodd" clip-rule="evenodd"/></clipPath></defs><g clip-path="url(#clip0)"><rect x="0" y="0" width="1280" height="720" fill="#FFFFFF"/><path d="M0.500053 254.5 218.5 254.5 272.5 308.5 218.5 362.5 0.500053 362.5 54.5 308.5Z" stroke="#FFFFFF" stroke-miterlimit="8" fill="#F3A447" fill-rule="evenodd"/><text fill="#FFFFFF" font-family="Noto Serif CJK JP,Noto Serif CJK JP_MSFontService,sans-serif" font-weight="500" font-size="27" transform="translate(72.3958 296)">ライブラリ<tspan x="0" y="45">の読み込み</tspan></text><path d="M250.5 254.5 467.5 254.5 521.5 308.5 467.5 362.5 250.5 362.5 304.5 308.5Z" stroke="#FFFFFF" stroke-miterlimit="8" fill="#E7BC29" fill-rule="evenodd"/><text fill="#FFFFFF" font-family="Noto Serif CJK JP,Noto Serif CJK JP_MSFontService,sans-serif" font-weight="500" font-size="27" transform="translate(334.927 296)">データの<tspan x="0" y="45">読み込み</tspan></text><path d="M499.5 254.5 717.5 254.5 771.5 308.5 717.5 362.5 499.5 362.5 553.5 308.5Z" stroke="#FFFFFF" stroke-miterlimit="8" fill="#D092A7" fill-rule="evenodd"/><text fill="#FFFFFF" font-family="Noto Serif CJK JP,Noto Serif CJK JP_MSFontService,sans-serif" font-weight="500" font-size="27" transform="translate(584.125 296)">データの<tspan x="13.3334" y="45">下処理</tspan></text><path d="M759.5 254.5 976.5 254.5 1030.5 308.5 976.5 362.5 759.5 362.5 813.5 308.5Z" stroke="#FFFFFF" stroke-miterlimit="8" fill="#9C85C0" fill-rule="evenodd"/><text fill="#FFFFFF" font-family="Noto Serif CJK JP,Noto Serif CJK JP_MSFontService,sans-serif" font-weight="500" font-size="27" transform="translate(831.9 318)">2<tspan x="14.64" y="0">標本</tspan><tspan x="67.9733" y="0">t</tspan><tspan x="77.5466" y="0">検定</tspan><tspan fill="#000000" x="-83.9811" y="91">•</tspan><tspan fill="#000000" x="-59.9811" y="91">t</tspan><tspan fill="#000000" x="-50.4078" y="91">検定</tspan><tspan fill="#000000" x="-83.9811" y="143">•</tspan><tspan fill="#000000" x="-59.9811" y="143">U</tspan><tspan fill="#000000" x="-38.7011" y="143">検定</tspan><tspan fill="#000000" x="-83.9811" y="195">•</tspan><tspan fill="#000000" x="-59.9811" y="195">シャピロ・ウィル</tspan><tspan fill="#000000" x="-59.9811" y="240">ク検定</tspan></text><path d="M1008.5 254.5 1226.5 254.5 1280.5 308.5 1226.5 362.5 1008.5 362.5 1062.5 308.5Z" stroke="#FFFFFF" stroke-miterlimit="8" fill="#809EC2" fill-rule="evenodd"/><text fill="#FFFFFF" font-family="Noto Serif CJK JP,Noto Serif CJK JP_MSFontService,sans-serif" font-weight="500" font-size="27" transform="translate(1079.87 318)">無相関検定<tspan fill="#000000" x="-72.0709" y="91">•</tspan><tspan fill="#000000" x="-48.0708" y="91">無相関検定</tspan><tspan fill="#000000" font-weight="700" font-size="43" x="-528.487" y="-175">仮説検定</tspan><tspan fill="#000000" font-size="32" x="-998.741" y="-79">Chap.1</tspan><tspan fill="#000000" font-size="32" x="-747.231" y="-79">Chap.2</tspan><tspan fill="#000000" font-size="32" x="-516.584" y="-79">Chap.3</tspan><tspan fill="#000000" font-size="32" x="-244.859" y="-79">Chap.4</tspan><tspan fill="#000000" font-size="32" x="-17.0942" y="-79">Chap.5</tspan></text></g></svg>