<svg width="1280" height="720" xmlns="http://www.w3.org/2000/svg" xmlns:xlink="http://www.w3.org/1999/xlink" overflow="hidden"><defs><clipPath id="clip0"><path d="M0 0 1280 0 1280 720 0 720Z" fill-rule="evenodd" clip-rule="evenodd"/></clipPath></defs><g clip-path="url(#clip0)"><rect x="0" y="0" width="1280" height="720" fill="#FFFFFF"/><path d="M0.500053 289.5 218 289.5 272.5 344 218 398.5 0.500053 398.5 55 344Z" stroke="#FFFFFF" stroke-miterlimit="8" fill="#F3A447" fill-rule="evenodd"/><text fill="#FFFFFF" font-family="Noto Serif CJK JP,Noto Serif CJK JP_MSFontService,sans-serif" font-weight="500" font-size="27" transform="translate(72.3958 331)">ライブラリ<tspan x="0" y="45">の読み込み</tspan></text><path d="M250.5 289.5 467 289.5 521.5 344 467 398.5 250.5 398.5 305 344Z" stroke="#FFFFFF" stroke-miterlimit="8" fill="#E7BC29" fill-rule="evenodd"/><text fill="#FFFFFF" font-family="Noto Serif CJK JP,Noto Serif CJK JP_MSFontService,sans-serif" font-weight="500" font-size="27" transform="translate(334.927 331)">データの<tspan x="0" y="45">読み込み</tspan></text><path d="M499.5 289.5 717 289.5 771.5 344 717 398.5 499.5 398.5 554 344Z" stroke="#FFFFFF" stroke-miterlimit="8" fill="#D092A7" fill-rule="evenodd"/><text fill="#FFFFFF" font-family="Noto Serif CJK JP,Noto Serif CJK JP_MSFontService,sans-serif" font-weight="500" font-size="27" transform="translate(584.125 331)">データの<tspan x="13.3334" y="45">下処理</tspan></text><path d="M759.5 289.5 976 289.5 1030.5 344 976 398.5 759.5 398.5 814 344Z" stroke="#FFFFFF" stroke-miterlimit="8" fill="#9C85C0" fill-rule="evenodd"/><text fill="#FFFFFF" font-family="Noto Serif CJK JP,Noto Serif CJK JP_MSFontService,sans-serif" font-weight="500" font-size="27" transform="translate(844.006 354)">自己相関<tspan fill="#000000" x="-96.0878" y="91">•</tspan><tspan fill="#000000" x="-72.0878" y="91">自己相関係数</tspan><tspan fill="#000000" x="-96.0878" y="143">•</tspan><tspan fill="#000000" x="-72.0878" y="143">偏自己相関係数</tspan></text><path d="M1008.5 289.5 1226 289.5 1280.5 344 1226 398.5 1008.5 398.5 1063 344Z" stroke="#FFFFFF" stroke-miterlimit="8" fill="#809EC2" fill-rule="evenodd"/><text fill="#FFFFFF" font-family="Noto Serif CJK JP,Noto Serif CJK JP_MSFontService,sans-serif" font-weight="500" font-size="27" transform="translate(1079.87 354)">時系列予測<tspan fill="#000000" x="-72.0709" y="91">•</tspan><tspan fill="#000000" x="-48.0708" y="91">ARIMA</tspan><tspan fill="#000000" x="46.5958" y="91">モデル</tspan><tspan fill="#000000" font-weight="700" font-size="43" x="-550.618" y="-221">時系列分析</tspan><tspan fill="#000000" font-size="32" x="-994.035" y="-85">Chap.1</tspan><tspan fill="#000000" font-size="32" x="-742.525" y="-85">Chap.2</tspan><tspan fill="#000000" font-size="32" x="-511.878" y="-85">Chap.3</tspan><tspan fill="#000000" font-size="32" x="-240.153" y="-85">Chap.4</tspan><tspan fill="#000000" font-size="32" x="-12.3883" y="-85">Chap.5</tspan></text></g></svg>
