<svg width="1280" height="720" xmlns="http://www.w3.org/2000/svg" xmlns:xlink="http://www.w3.org/1999/xlink" overflow="hidden"><defs><clipPath id="clip0"><path d="M0 0 1280 0 1280 720 0 720Z" fill-rule="evenodd" clip-rule="evenodd"/></clipPath></defs><g clip-path="url(#clip0)"><rect x="0" y="0" width="1280" height="720" fill="#FFFFFF"/><text font-family="Noto Serif CJK JP,Noto Serif CJK JP_MSFontService,sans-serif" font-weight="700" font-size="43" transform="translate(440.73 133)">地図上へのプロット</text><path d="M213.5 231.5 453.5 231.5 513.5 291.5 453.5 351.5 213.5 351.5 273.5 291.5Z" stroke="#FFFFFF" stroke-miterlimit="8" fill="#E7BC29" fill-rule="evenodd"/><text fill="#FFFFFF" font-family="Noto Serif CJK JP,Noto Serif CJK JP_MSFontService,sans-serif" font-weight="500" font-size="27" transform="translate(285.848 279)">ライブラリの<tspan x="26.6667" y="45">読み込み</tspan></text><path d="M491.5 231.5 731.5 231.5 791.5 291.5 731.5 351.5 491.5 351.5 551.5 291.5Z" stroke="#FFFFFF" stroke-miterlimit="8" fill="#62BED7" fill-rule="evenodd"/><text fill="#FFFFFF" font-family="Noto Serif CJK JP,Noto Serif CJK JP_MSFontService,sans-serif" font-weight="500" font-size="27" transform="translate(563.844 279)">データの読み<tspan x="53.3333" y="45">込み</tspan></text><path d="M789.5 231.5 1030.5 231.5 1090.5 291.5 1030.5 351.5 789.5 351.5 849.5 291.5Z" stroke="#FFFFFF" stroke-miterlimit="8" fill="#D092A7" fill-rule="evenodd"/><text fill="#FFFFFF" font-family="Noto Serif CJK JP,Noto Serif CJK JP_MSFontService,sans-serif" font-weight="500" font-size="27" transform="translate(862.34 279)">アニメーショ<tspan x="26.6666" y="45">ン化する</tspan><tspan fill="#000000" x="-93.6364" y="120">•</tspan><tspan fill="#000000" x="-69.6364" y="120">GIF</tspan><tspan fill="#000000" x="-22.2231" y="120">アニメーション</tspan><tspan fill="#000000" font-size="32" x="-550.146" y="-73">Chap.6</tspan><tspan fill="#000000" font-size="32" x="-277.008" y="-73">Chap.7</tspan><tspan fill="#000000" font-size="32" x="19.2656" y="-73">Chap.8</tspan></text></g></svg>