<svg width="1280" height="720" xmlns="http://www.w3.org/2000/svg" xmlns:xlink="http://www.w3.org/1999/xlink" overflow="hidden"><defs><clipPath id="clip0"><path d="M0 0 1280 0 1280 720 0 720Z" fill-rule="evenodd" clip-rule="evenodd"/></clipPath></defs><g clip-path="url(#clip0)"><rect x="0" y="0" width="1280" height="720" fill="#FFFFFF"/><rect x="191.5" y="134.5" width="348" height="65" stroke="#9C85C0" stroke-miterlimit="8" fill="#C4B6D9"/><text fill="#FFFFFF" font-family="Noto Serif CJK JP,Noto Serif CJK JP_MSFontService,sans-serif" font-weight="500" font-size="24" transform="translate(305.09 175)">海岸線描画</text><rect x="190.5" y="314.5" width="349" height="65" stroke="#9C85C0" stroke-miterlimit="8" fill="#C4B6D9"/><text fill="#FFFFFF" font-family="Noto Serif CJK JP,Noto Serif CJK JP_MSFontService,sans-serif" font-weight="500" font-size="24" transform="translate(268.435 341)">カズハゴンドウの<tspan x="60" y="29">散布図</tspan></text><rect x="190.5" y="494.5" width="349" height="65" stroke="#9C85C0" stroke-miterlimit="8" fill="#C4B6D9"/><text fill="#FFFFFF" font-family="Noto Serif CJK JP,Noto Serif CJK JP_MSFontService,sans-serif" font-weight="500" font-size="24" transform="translate(268.435 535)">スナメリの散布図</text><rect x="741.5" y="95.5001" width="349" height="64" stroke="#9C85C0" stroke-miterlimit="8" fill="#C4B6D9"/><text fill="#FFFFFF" font-family="Noto Serif CJK JP,Noto Serif CJK JP_MSFontService,sans-serif" font-weight="500" font-size="24" transform="translate(759.565 136)">シナウスイロイルカ<tspan x="216" y="0">の散布図</tspan></text><rect x="741.5" y="255.5" width="348" height="64" stroke="#9C85C0" stroke-miterlimit="8" fill="#C4B6D9"/><text fill="#FFFFFF" font-family="Noto Serif CJK JP,Noto Serif CJK JP_MSFontService,sans-serif" font-weight="500" font-size="24" transform="translate(806.91 296)">スジイルカの散布図</text><path d="M1.49998-0.0084973 2.11292 108.191-0.88703 108.208-1.49998 0.0084973ZM5.10438 106.674 0.655433 115.7-3.89548 106.725Z" fill="#9C85C0" transform="matrix(-1 -8.74228e-08 -8.74228e-08 1 365.155 199.5)"/><path d="M366 559.141 366 583.139 364.5 581.639 640.065 581.639 638.565 583.139 638.565 70.002 917.13 70.002 917.13 88.0001 914.13 88.0001 914.13 71.502 915.63 73.002 640.065 73.002 641.565 71.502 641.565 584.639 363 584.639 363 559.141ZM920.13 86.5001 915.63 95.5001 911.13 86.5001Z" fill="#9C85C0"/><path d="M1.49996-0.0102692 2.10363 88.1637-0.896298 88.1842-1.49996 0.0102692ZM5.09329 86.6431 0.655013 95.6737-3.9065 86.7047Z" fill="#9C85C0" transform="matrix(-1 -8.74228e-08 -8.74228e-08 1 916.155 159.5)"/><path d="M741.5 424 799.5 400.5 1031.5 400.5C1063.53 400.5 1089.5 411.021 1089.5 424 1089.5 436.979 1063.53 447.5 1031.5 447.5L799.5 447.5Z" stroke="#9C85C0" stroke-miterlimit="8" fill="#C4B6D9" fill-rule="evenodd"/><text fill="#FFFFFF" font-family="Noto Serif CJK JP,Noto Serif CJK JP_MSFontService,sans-serif" font-weight="500" font-size="24" transform="translate(842.91 432)">グラフの表示</text><path d="M797.486 563.5 1033.51 563.5C1064.43 563.5 1089.5 577.379 1089.5 594.5 1089.5 611.621 1064.43 625.5 1033.51 625.5L797.486 625.5C766.566 625.5 741.5 611.621 741.5 594.5 741.5 577.379 766.566 563.5 797.486 563.5Z" stroke="#9C85C0" stroke-miterlimit="8" fill="#C4B6D9" fill-rule="evenodd"/><text fill="#FFFFFF" font-family="Noto Serif CJK JP,Noto Serif CJK JP_MSFontService,sans-serif" font-weight="500" font-size="24" transform="translate(890.911 603)">終了</text><path d="M366 379.5 366 487.7 363 487.7 363 379.5ZM369 486.2 364.5 495.2 360 486.2Z" fill="#9C85C0"/><path d="M1.5-1.94258e-06 1.5001 73.5678-1.4999 73.5678-1.5 1.94258e-06ZM4.50009 72.0677 0.000104987 81.0677-4.49991 72.0677Z" fill="#9C85C0" transform="matrix(-1 -8.74228e-08 -8.74228e-08 1 915.5 319.5)"/><path d="M917 447.5 917.001 556.613 914.001 556.613 914 447.5ZM920.001 555.113 915.501 564.113 911.001 555.113Z" fill="#9C85C0"/></g></svg>