<svg width="1280" height="720" xmlns="http://www.w3.org/2000/svg" xmlns:xlink="http://www.w3.org/1999/xlink" overflow="hidden"><defs><clipPath id="clip0"><path d="M0 0 1280 0 1280 720 0 720Z" fill-rule="evenodd" clip-rule="evenodd"/></clipPath></defs><g clip-path="url(#clip0)"><rect x="0" y="0" width="1280" height="720" fill="#FFFFFF"/><rect x="91.5001" y="67.5001" width="338" height="53" stroke="#D092A7" stroke-miterlimit="8" fill="#E3BECA"/><text fill="#FFFFFF" font-family="Noto Serif CJK JP,Noto Serif CJK JP_MSFontService,sans-serif" font-weight="500" font-size="24" transform="translate(123.216 102)">新しい<tspan x="72" y="0">DataFrame</tspan>の作成</text><path d="M95.4999 152.5 425.5 152.5 443.5 170.5 443.5 188.5 443.5 188.5 77.5001 188.5 77.5001 188.5 77.5001 170.5Z" stroke="#D092A7" stroke-miterlimit="8" fill="#E3BECA" fill-rule="evenodd"/><text fill="#FFFFFF" font-family="Noto Serif CJK JP,Noto Serif CJK JP_MSFontService,sans-serif" font-weight="500" font-size="24" transform="translate(140.059 183)">各行について繰り返す</text><rect x="77.5001" y="214.5" width="366" height="52" stroke="#D092A7" stroke-miterlimit="8" fill="#E3BECA"/><text fill="#FFFFFF" font-family="Noto Serif CJK JP,Noto Serif CJK JP_MSFontService,sans-serif" font-weight="500" font-size="24" transform="translate(118.835 249)">その行の<tspan x="96" y="0">SampleID</tspan>の取得</text><path d="M77.5001 347.5 260.5 286.5 443.5 347.5 260.5 408.5Z" stroke="#D092A7" stroke-miterlimit="8" fill="#E3BECA" fill-rule="evenodd"/><text fill="#FFFFFF" font-family="Noto Serif CJK JP,Noto Serif CJK JP_MSFontService,sans-serif" font-weight="500" font-size="24" transform="translate(190.832 327)">SampleID<tspan x="114.447" y="0">が</tspan><tspan x="-1.38" y="29">data_lipid</tspan><tspan x="115.833" y="29">に</tspan><tspan x="-2.77335" y="58">含まれるか？</tspan></text><rect x="504.5" y="172.5" width="312" height="45" stroke="#D092A7" stroke-miterlimit="8" fill="#E3BECA"/><text fill="#FFFFFF" font-family="Noto Serif CJK JP,Noto Serif CJK JP_MSFontService,sans-serif" font-weight="500" font-size="24" transform="translate(528.059 203)">追加する行データの準備</text><rect x="504.5" y="245.5" width="312" height="45" stroke="#D092A7" stroke-miterlimit="8" fill="#E3BECA"/><text fill="#FFFFFF" font-family="Noto Serif CJK JP,Noto Serif CJK JP_MSFontService,sans-serif" font-weight="500" font-size="24" transform="translate(528.059 276)">学名を追加する行に入力</text><rect x="885.5" y="312.5" width="312" height="65" stroke="#D092A7" stroke-miterlimit="8" fill="#E3BECA"/><text fill="#FFFFFF" font-family="Noto Serif CJK JP,Noto Serif CJK JP_MSFontService,sans-serif" font-weight="500" font-size="24" transform="translate(896.883 339)">各化学物質の計測値を行に<tspan x="120" y="29">追加</tspan></text><rect x="888.5" y="217.5" width="305" height="64" stroke="#D092A7" stroke-miterlimit="8" fill="#E3BECA"/><text fill="#FFFFFF" font-family="Noto Serif CJK JP,Noto Serif CJK JP_MSFontService,sans-serif" font-weight="500" font-size="24" transform="translate(899.659 258)">SampleID<tspan x="114.447" y="0">のデータを検索</tspan></text><path d="M477.5 350 660.5 313.5 843.5 350 660.5 386.5Z" stroke="#D092A7" stroke-miterlimit="8" fill="#E3BECA" fill-rule="evenodd"/><text fill="#FFFFFF" font-family="Noto Serif CJK JP,Noto Serif CJK JP_MSFontService,sans-serif" font-weight="500" font-size="24" transform="translate(588.059 358)">データの有無</text><path d="M495.5 119.5 825.5 119.5 843.5 137.5 843.5 155.5 843.5 155.5 477.5 155.5 477.5 155.5 477.5 137.5Z" stroke="#D092A7" stroke-miterlimit="8" fill="#E3BECA" fill-rule="evenodd"/><text fill="#FFFFFF" font-family="Noto Serif CJK JP,Noto Serif CJK JP_MSFontService,sans-serif" font-weight="500" font-size="24" transform="translate(504.059 150)">各化学物質について繰り返す</text><path d="M1.5-4.92126e-06 1.50008 24.5-1.49992 24.5-1.5 4.92126e-06ZM4.50008 23 0.000104987 32-4.49992 23Z" fill="#D092A7" transform="matrix(-1 -8.74228e-08 -8.74228e-08 1 260.5 120.5)"/><path d="M262 188.5 262 207.236 259 207.236 259 188.5ZM265 205.736 260.5 214.736 256 205.736Z" fill="#D092A7"/><path d="M262 266.5 262 278.264 259 278.264 259 266.5ZM265 276.764 260.5 285.764 256 276.764Z" fill="#D092A7"/><path d="M0-1.5 18.9126-1.5 18.9126 251.606 17.4126 250.106 217.412 250.106 215.912 251.606 215.912 235.107 218.912 235.107 218.912 253.106 15.9126 253.106 15.9126 0 17.4126 1.5 0 1.5ZM212.912 236.607 217.412 227.607 221.912 236.607Z" fill="#D092A7" transform="matrix(1 0 0 -1 443.5 347.108)"/><path d="M662 155.5 662 165.082 659 165.082 659 155.5ZM665 163.582 660.5 172.582 656 163.582Z" fill="#D092A7"/><path d="M662 217.5 662 237.946 659 237.946 659 217.5ZM665 236.446 660.5 245.446 656 236.446Z" fill="#D092A7"/><path d="M1.5-1.33671e-05 1.50014 16.0623-1.49986 16.0623-1.5 1.33671e-05ZM4.50013 14.5623 0.000209974 23.5623-4.49987 14.5623Z" fill="#D092A7" transform="matrix(-1 -8.74228e-08 -8.74228e-08 1 660.5 290.5)"/><path d="M0-1.5 24.3823-1.5 24.3823 156.345 22.8823 154.845 198.235 154.845 196.735 156.345 196.735 139.846 199.735 139.846 199.735 157.845 21.3823 157.845 21.3823 0 22.8823 1.5 0 1.5ZM193.735 141.346 198.235 132.346 202.735 141.346Z" fill="#D092A7" transform="matrix(1 0 0 -1 843.5 349.846)"/><path d="M1043 281.5 1043 304.919 1040 304.919 1040 281.5ZM1046 303.419 1041.5 312.419 1037 303.419Z" fill="#D092A7"/><path d="M1171 478.5 912 478.5 885.5 452 885.5 425.5 885.5 425.5 1197.5 425.5 1197.5 425.5 1197.5 452Z" stroke="#D092A7" stroke-miterlimit="8" fill="#E3BECA" fill-rule="evenodd"/><path d="M0-1.5 67.361-1.5 67.361 217.559 64.361 217.559 64.361 0 65.861 1.5 0 1.5ZM70.361 216.059 65.861 225.059 61.361 216.059Z" fill="#D092A7" transform="matrix(-4.37114e-08 1 1 4.37114e-08 660.5 386.5)"/><path d="M1.5-3.2498e-06 1.50009 40.9585-1.49991 40.9585-1.5 3.2498e-06ZM4.50009 39.4585 0.000104987 48.4585-4.49991 39.4585Z" fill="#D092A7" transform="matrix(-1 -8.74228e-08 -8.74228e-08 1 1041.5 377.5)"/><path d="M1177 653.5 906 653.5 879.5 627 879.5 600.5 879.5 600.5 1203.5 600.5 1203.5 600.5 1203.5 627Z" stroke="#D092A7" stroke-miterlimit="8" fill="#E3BECA" fill-rule="evenodd"/><rect x="881.5" y="510.5" width="320" height="53" stroke="#D092A7" stroke-miterlimit="8" fill="#E3BECA"/><text fill="#FFFFFF" font-family="Noto Serif CJK JP,Noto Serif CJK JP_MSFontService,sans-serif" font-weight="500" font-size="24" transform="translate(932.882 545)">新たな行として追加</text><path d="M1197.5 450.253 1200.5 450.253 1200.5 453.253 1197.5 453.253ZM1203.5 450.253 1206.5 450.253 1206.5 453.253 1203.5 453.253ZM1209.5 450.253 1212.5 450.253 1212.5 453.253 1209.5 453.253ZM1215.5 450.253 1218.5 450.253 1218.5 453.253 1215.5 453.253ZM1221.5 450.253 1221.5 450.253 1220 451.753 1220 448.754 1223 448.754 1223 453.253 1221.5 453.253ZM1220 445.754 1220 442.754 1223 442.754 1223 445.754ZM1220 439.754 1220 436.754 1223 436.754 1223 439.754ZM1220 433.754 1220 430.754 1223 430.754 1223 433.754ZM1220 427.754 1220 424.754 1223 424.754 1223 427.754ZM1220 421.754 1220 418.754 1223 418.754 1223 421.754ZM1220 415.754 1220 412.754 1223 412.754 1223 415.754ZM1220 409.754 1220 406.754 1223 406.754 1223 409.754ZM1220 403.754 1220 400.754 1223 400.754 1223 403.754ZM1220 397.754 1220 394.754 1223 394.754 1223 397.754ZM1220 391.754 1220 388.754 1223 388.754 1223 391.754ZM1220 385.754 1220 382.754 1223 382.754 1223 385.754ZM1220 379.754 1220 376.754 1223 376.754 1223 379.754ZM1220 373.754 1220 370.754 1223 370.754 1223 373.754ZM1220 367.754 1220 364.754 1223 364.754 1223 367.754ZM1220 361.754 1220 358.754 1223 358.754 1223 361.754ZM1220 355.754 1220 352.754 1223 352.754 1223 355.754ZM1220 349.754 1220 346.754 1223 346.754 1223 349.754ZM1220 343.754 1220 340.754 1223 340.754 1223 343.754ZM1220 337.754 1220 334.754 1223 334.754 1223 337.754ZM1220 331.754 1220 328.754 1223 328.754 1223 331.754ZM1220 325.754 1220 322.754 1223 322.754 1223 325.754ZM1220 319.754 1220 316.754 1223 316.754 1223 319.754ZM1220 313.754 1220 310.754 1223 310.754 1223 313.754ZM1220 307.754 1220 304.754 1223 304.754 1223 307.754ZM1220 301.754 1220 298.754 1223 298.754 1223 301.754ZM1220 295.754 1220 292.754 1223 292.754 1223 295.754ZM1220 289.754 1220 286.754 1223 286.754 1223 289.754ZM1220 283.754 1220 280.754 1223 280.754 1223 283.754ZM1220 277.754 1220 274.754 1223 274.754 1223 277.754ZM1220 271.754 1220 268.754 1223 268.754 1223 271.754ZM1220 265.754 1220 262.754 1223 262.754 1223 265.754ZM1220 259.754 1220 256.754 1223 256.754 1223 259.754ZM1220 253.754 1220 250.754 1223 250.754 1223 253.754ZM1220 247.754 1220 244.754 1223 244.754 1223 247.754ZM1220 241.754 1220 238.754 1223 238.754 1223 241.754ZM1220 235.754 1220 232.754 1223 232.754 1223 235.754ZM1220 229.754 1220 226.754 1223 226.754 1223 229.754ZM1220 223.754 1220 220.754 1223 220.754 1223 223.754ZM1220 217.754 1220 214.754 1223 214.754 1223 217.754ZM1220 211.754 1220 208.754 1223 208.754 1223 211.754ZM1220 205.754 1220 202.754 1223 202.754 1223 205.754ZM1220 199.754 1220 196.754 1223 196.754 1223 199.754ZM1220 193.754 1220 190.754 1223 190.754 1223 193.754ZM1220 187.754 1220 184.754 1223 184.754 1223 187.754ZM1220 181.754 1220 178.754 1223 178.754 1223 181.754ZM1220 175.754 1220 172.754 1223 172.754 1223 175.754ZM1220 169.754 1220 166.754 1223 166.754 1223 169.754ZM1220 163.754 1220 160.754 1223 160.754 1223 163.754ZM1220 157.754 1220 154.754 1223 154.754 1223 157.754ZM1220 151.754 1220 148.754 1223 148.754 1223 151.754ZM1220 145.754 1220 142.754 1223 142.754 1223 145.754ZM1220 139.754 1220 137.5 1221.5 139 1220.76 139 1220.76 136 1223 136 1223 139.754ZM1217.76 139 1214.76 139 1214.76 136 1217.76 136ZM1211.76 139 1208.76 139 1208.76 136 1211.76 136ZM1205.76 139 1202.76 139 1202.76 136 1205.76 136ZM1199.76 139 1196.76 139 1196.76 136 1199.76 136ZM1193.76 139 1190.76 139 1190.76 136 1193.76 136ZM1187.76 139 1184.76 139 1184.76 136 1187.76 136ZM1181.76 139 1178.76 139 1178.76 136 1181.76 136ZM1175.76 139 1172.76 139 1172.76 136 1175.76 136ZM1169.76 139 1166.76 139 1166.76 136 1169.76 136ZM1163.76 139 1160.76 139 1160.76 136 1163.76 136ZM1157.76 139 1154.76 139 1154.76 136 1157.76 136ZM1151.76 139 1148.76 139 1148.76 136 1151.76 136ZM1145.76 139 1142.76 139 1142.76 136 1145.76 136ZM1139.76 139 1136.76 139 1136.76 136 1139.76 136ZM1133.76 139 1130.76 139 1130.76 136 1133.76 136ZM1127.76 139 1124.76 139 1124.76 136 1127.76 136ZM1121.76 139 1118.76 139 1118.76 136 1121.76 136ZM1115.76 139 1112.76 139 1112.76 136 1115.76 136ZM1109.76 139 1106.76 139 1106.76 136 1109.76 136ZM1103.76 139 1100.76 139 1100.76 136 1103.76 136ZM1097.76 139 1094.76 139 1094.76 136 1097.76 136ZM1091.76 139 1088.76 139 1088.76 136 1091.76 136ZM1085.76 139 1082.76 139 1082.76 136 1085.76 136ZM1079.76 139 1076.76 139 1076.76 136 1079.76 136ZM1073.76 139 1070.76 139 1070.76 136 1073.76 136ZM1067.76 139 1064.76 139 1064.76 136 1067.76 136ZM1061.76 139 1058.76 139 1058.76 136 1061.76 136ZM1055.76 139 1052.76 139 1052.76 136 1055.76 136ZM1049.76 139 1046.76 139 1046.76 136 1049.76 136ZM1043.76 139 1040.76 139 1040.76 136 1043.76 136ZM1037.76 139 1034.76 139 1034.76 136 1037.76 136ZM1031.76 139 1028.76 139 1028.76 136 1031.76 136ZM1025.76 139 1022.76 139 1022.76 136 1025.76 136ZM1019.76 139 1016.76 139 1016.76 136 1019.76 136ZM1013.76 139 1010.76 139 1010.76 136 1013.76 136ZM1007.76 139 1004.76 139 1004.76 136 1007.76 136ZM1001.76 139 998.755 139 998.755 136 1001.76 136ZM995.755 139 992.755 139 992.755 136 995.755 136ZM989.755 139 986.755 139 986.755 136 989.755 136ZM983.755 139 980.755 139 980.755 136 983.755 136ZM977.755 139 974.755 139 974.755 136 977.755 136ZM971.755 139 968.755 139 968.755 136 971.755 136ZM965.755 139 962.755 139 962.755 136 965.755 136ZM959.755 139 956.755 139 956.755 136 959.755 136ZM953.755 139 950.755 139 950.755 136 953.755 136ZM947.755 139 944.755 139 944.755 136 947.755 136ZM941.755 139 938.755 139 938.755 136 941.755 136ZM935.755 139 932.755 139 932.755 136 935.755 136ZM929.755 139 926.755 139 926.755 136 929.755 136ZM923.755 139 920.755 139 920.755 136 923.755 136ZM917.755 139 914.755 139 914.755 136 917.755 136ZM911.755 139 908.755 139 908.755 136 911.755 136ZM905.755 139 902.755 139 902.755 136 905.755 136ZM899.755 139 896.755 139 896.755 136 899.755 136ZM893.755 139 890.755 139 890.755 136 893.755 136ZM887.755 139 884.755 139 884.755 136 887.755 136ZM881.755 139 878.755 139 878.755 136 881.755 136ZM875.755 139 872.755 139 872.755 136 875.755 136ZM869.755 139 866.755 139 866.755 136 869.755 136ZM863.755 139 860.755 139 860.755 136 863.755 136ZM857.755 139 854.755 139 854.755 136 857.755 136ZM851.755 139 851 139 851 136 851.755 136ZM852.5 142 843.5 137.5 852.5 133Z" fill="#D092A7"/><path d="M879.265 628.912 876.265 628.912 876.265 625.912 879.265 625.912ZM873.265 628.912 870.265 628.912 870.265 625.912 873.265 625.912ZM867.265 628.912 864.265 628.912 864.265 625.912 867.265 625.912ZM861.265 628.912 858.265 628.912 858.265 625.912 861.265 625.912ZM855.265 628.912 852.265 628.912 852.265 625.912 855.265 625.912ZM849.265 628.912 846.265 628.912 846.265 625.912 849.265 625.912ZM843.265 628.912 840.265 628.912 840.265 625.912 843.265 625.912ZM837.265 628.912 834.265 628.912 834.265 625.912 837.265 625.912ZM831.265 628.912 828.265 628.912 828.265 625.912 831.265 625.912ZM825.265 628.912 822.265 628.912 822.265 625.912 825.265 625.912ZM819.265 628.912 816.265 628.912 816.265 625.912 819.265 625.912ZM813.265 628.912 810.265 628.912 810.265 625.912 813.265 625.912ZM807.265 628.912 804.265 628.912 804.265 625.912 807.265 625.912ZM801.265 628.912 798.265 628.912 798.265 625.912 801.265 625.912ZM795.265 628.912 792.265 628.912 792.265 625.912 795.265 625.912ZM789.265 628.912 786.265 628.912 786.265 625.912 789.265 625.912ZM783.265 628.912 780.265 628.912 780.265 625.912 783.265 625.912ZM777.265 628.912 774.265 628.912 774.265 625.912 777.265 625.912ZM771.265 628.912 768.265 628.912 768.265 625.912 771.265 625.912ZM765.265 628.912 762.265 628.912 762.265 625.912 765.265 625.912ZM759.265 628.912 756.265 628.912 756.265 625.912 759.265 625.912ZM753.265 628.912 750.265 628.912 750.265 625.912 753.265 625.912ZM747.265 628.912 744.265 628.912 744.265 625.912 747.265 625.912ZM741.265 628.912 738.265 628.912 738.265 625.912 741.265 625.912ZM735.265 628.912 732.265 628.912 732.265 625.912 735.265 625.912ZM729.265 628.912 726.265 628.912 726.265 625.912 729.265 625.912ZM723.265 628.912 720.265 628.912 720.265 625.912 723.265 625.912ZM717.265 628.912 714.265 628.912 714.265 625.912 717.265 625.912ZM711.265 628.912 708.265 628.912 708.265 625.912 711.265 625.912ZM705.265 628.912 702.265 628.912 702.265 625.912 705.265 625.912ZM699.265 628.912 696.265 628.912 696.265 625.912 699.265 625.912ZM693.265 628.912 690.265 628.912 690.265 625.912 693.265 625.912ZM687.265 628.912 684.265 628.912 684.265 625.912 687.265 625.912ZM681.265 628.912 678.265 628.912 678.265 625.912 681.265 625.912ZM675.265 628.912 672.265 628.912 672.265 625.912 675.265 625.912ZM669.265 628.912 666.265 628.912 666.265 625.912 669.265 625.912ZM663.265 628.912 660.265 628.912 660.265 625.912 663.265 625.912ZM657.265 628.912 654.265 628.912 654.265 625.912 657.265 625.912ZM651.265 628.912 648.265 628.912 648.265 625.912 651.265 625.912ZM645.265 628.912 642.265 628.912 642.265 625.912 645.265 625.912ZM639.265 628.912 636.265 628.912 636.265 625.912 639.265 625.912ZM633.265 628.912 630.265 628.912 630.265 625.912 633.265 625.912ZM627.265 628.912 624.265 628.912 624.265 625.912 627.265 625.912ZM621.265 628.912 618.265 628.912 618.265 625.912 621.265 625.912ZM615.265 628.912 612.265 628.912 612.265 625.912 615.265 625.912ZM609.265 628.912 606.265 628.912 606.265 625.912 609.265 625.912ZM603.265 628.912 600.265 628.912 600.265 625.912 603.265 625.912ZM597.265 628.912 594.265 628.912 594.265 625.912 597.265 625.912ZM591.265 628.912 588.265 628.912 588.265 625.912 591.265 625.912ZM585.265 628.912 582.265 628.912 582.265 625.912 585.265 625.912ZM579.265 628.912 576.265 628.912 576.265 625.912 579.265 625.912ZM573.265 628.912 570.265 628.912 570.265 625.912 573.265 625.912ZM567.265 628.912 564.265 628.912 564.265 625.912 567.265 625.912ZM561.265 628.912 558.265 628.912 558.265 625.912 561.265 625.912ZM555.265 628.912 552.265 628.912 552.265 625.912 555.265 625.912ZM549.265 628.912 546.265 628.912 546.265 625.912 549.265 625.912ZM543.265 628.912 540.265 628.912 540.265 625.912 543.265 625.912ZM537.265 628.912 534.265 628.912 534.265 625.912 537.265 625.912ZM531.265 628.912 528.265 628.912 528.265 625.912 531.265 625.912ZM525.265 628.912 522.265 628.912 522.265 625.912 525.265 625.912ZM519.265 628.912 516.265 628.912 516.265 625.912 519.265 625.912ZM513.265 628.912 510.265 628.912 510.265 625.912 513.265 625.912ZM507.265 628.912 504.265 628.912 504.265 625.912 507.265 625.912ZM501.265 628.912 498.265 628.912 498.265 625.912 501.265 625.912ZM495.265 628.912 492.265 628.912 492.265 625.912 495.265 625.912ZM489.265 628.912 486.265 628.912 486.265 625.912 489.265 625.912ZM483.265 628.912 480.265 628.912 480.265 625.912 483.265 625.912ZM477.265 628.912 474.265 628.912 474.265 625.912 477.265 625.912ZM471.265 628.912 468.265 628.912 468.265 625.912 471.265 625.912ZM465.265 628.912 462.265 628.912 462.265 625.912 465.265 625.912ZM459.265 628.912 456.265 628.912 456.265 625.912 459.265 625.912ZM453.265 628.912 450.265 628.912 450.265 625.912 453.265 625.912ZM447.265 628.912 444.265 628.912 444.265 625.912 447.265 625.912ZM441.265 628.912 438.265 628.912 438.265 625.912 441.265 625.912ZM435.265 628.912 432.265 628.912 432.265 625.912 435.265 625.912ZM429.265 628.912 426.265 628.912 426.265 625.912 429.265 625.912ZM423.265 628.912 420.265 628.912 420.265 625.912 423.265 625.912ZM417.265 628.912 414.265 628.912 414.265 625.912 417.265 625.912ZM411.265 628.912 408.265 628.912 408.265 625.912 411.265 625.912ZM405.265 628.912 402.265 628.912 402.265 625.912 405.265 625.912ZM399.265 628.912 396.265 628.912 396.265 625.912 399.265 625.912ZM393.265 628.912 390.265 628.912 390.265 625.912 393.265 625.912ZM387.265 628.912 384.265 628.912 384.265 625.912 387.265 625.912ZM381.265 628.912 378.265 628.912 378.265 625.912 381.265 625.912ZM375.265 628.912 372.265 628.912 372.265 625.912 375.265 625.912ZM369.265 628.912 366.265 628.912 366.265 625.912 369.265 625.912ZM363.265 628.912 360.265 628.912 360.265 625.912 363.265 625.912ZM357.265 628.912 354.265 628.912 354.265 625.912 357.265 625.912ZM351.265 628.912 348.265 628.912 348.265 625.912 351.265 625.912ZM345.265 628.912 342.265 628.912 342.265 625.912 345.265 625.912ZM339.265 628.912 336.265 628.912 336.265 625.912 339.265 625.912ZM333.265 628.912 330.265 628.912 330.265 625.912 333.265 625.912ZM327.265 628.912 324.265 628.912 324.265 625.912 327.265 625.912ZM321.265 628.912 318.265 628.912 318.265 625.912 321.265 625.912ZM315.265 628.912 312.265 628.912 312.265 625.912 315.265 625.912ZM309.265 628.912 306.265 628.912 306.265 625.912 309.265 625.912ZM303.265 628.912 300.265 628.912 300.265 625.912 303.265 625.912ZM297.265 628.912 294.265 628.912 294.265 625.912 297.265 625.912ZM291.265 628.912 288.265 628.912 288.265 625.912 291.265 625.912ZM285.265 628.912 282.265 628.912 282.265 625.912 285.265 625.912ZM279.265 628.912 276.265 628.912 276.265 625.912 279.265 625.912ZM273.265 628.912 270.265 628.912 270.265 625.912 273.265 625.912ZM267.265 628.912 264.265 628.912 264.265 625.912 267.265 625.912ZM261.265 628.912 258.265 628.912 258.265 625.912 261.265 625.912ZM255.265 628.912 252.265 628.912 252.265 625.912 255.265 625.912ZM249.265 628.912 246.265 628.912 246.265 625.912 249.265 625.912ZM243.265 628.912 240.265 628.912 240.265 625.912 243.265 625.912ZM237.265 628.912 234.265 628.912 234.265 625.912 237.265 625.912ZM231.265 628.912 228.265 628.912 228.265 625.912 231.265 625.912ZM225.265 628.912 222.265 628.912 222.265 625.912 225.265 625.912ZM219.265 628.912 216.265 628.912 216.265 625.912 219.265 625.912ZM213.265 628.912 210.265 628.912 210.265 625.912 213.265 625.912ZM207.265 628.912 204.265 628.912 204.265 625.912 207.265 625.912ZM201.265 628.912 198.265 628.912 198.265 625.912 201.265 625.912ZM195.265 628.912 192.265 628.912 192.265 625.912 195.265 625.912ZM189.265 628.912 186.265 628.912 186.265 625.912 189.265 625.912ZM183.265 628.912 180.265 628.912 180.265 625.912 183.265 625.912ZM177.265 628.912 174.265 628.912 174.265 625.912 177.265 625.912ZM171.265 628.912 168.265 628.912 168.265 625.912 171.265 625.912ZM165.265 628.912 162.265 628.912 162.265 625.912 165.265 625.912ZM159.265 628.912 156.265 628.912 156.265 625.912 159.265 625.912ZM153.265 628.912 150.265 628.912 150.265 625.912 153.265 625.912ZM147.265 628.912 144.265 628.912 144.265 625.912 147.265 625.912ZM141.265 628.912 138.265 628.912 138.265 625.912 141.265 625.912ZM135.265 628.912 132.265 628.912 132.265 625.912 135.265 625.912ZM129.265 628.912 126.265 628.912 126.265 625.912 129.265 625.912ZM123.265 628.912 120.265 628.912 120.265 625.912 123.265 625.912ZM117.265 628.912 114.265 628.912 114.265 625.912 117.265 625.912ZM111.265 628.912 108.265 628.912 108.265 625.912 111.265 625.912ZM105.265 628.912 102.265 628.912 102.265 625.912 105.265 625.912ZM99.2646 628.912 96.2646 628.912 96.2646 625.912 99.2646 625.912ZM93.2646 628.912 90.2646 628.912 90.2646 625.912 93.2646 625.912ZM87.2646 628.912 84.2646 628.912 84.2646 625.912 87.2646 625.912ZM81.2646 628.912 78.2646 628.912 78.2646 625.912 81.2646 625.912ZM75.2646 628.912 72.2646 628.912 72.2646 625.912 75.2646 625.912ZM69.2646 628.912 66.2646 628.912 66.2646 625.912 69.2646 625.912ZM63.2646 628.912 60.2646 628.912 60.2646 625.912 63.2646 625.912ZM57.2646 628.912 54.2646 628.912 54.2646 625.912 57.2646 625.912ZM52.0033 625.174 52.0033 622.174 55.0033 622.174 55.0033 625.174ZM52.0033 619.174 52.0033 616.174 55.0033 616.174 55.0033 619.174ZM52.0033 613.174 52.0033 610.174 55.0033 610.174 55.0033 613.174ZM52.0033 607.174 52.0033 604.174 55.0033 604.174 55.0033 607.174ZM52.0033 601.174 52.0033 598.174 55.0033 598.174 55.0033 601.174ZM52.0033 595.174 52.0033 592.174 55.0033 592.174 55.0033 595.174ZM52.0033 589.174 52.0033 586.174 55.0033 586.174 55.0033 589.174ZM52.0033 583.174 52.0033 580.174 55.0033 580.174 55.0033 583.174ZM52.0033 577.174 52.0033 574.174 55.0033 574.174 55.0033 577.174ZM52.0033 571.174 52.0033 568.174 55.0033 568.174 55.0033 571.174ZM52.0033 565.174 52.0033 562.174 55.0033 562.174 55.0033 565.174ZM52.0033 559.174 52.0033 556.174 55.0033 556.174 55.0033 559.174ZM52.0033 553.174 52.0033 550.174 55.0033 550.174 55.0033 553.174ZM52.0033 547.174 52.0033 544.174 55.0033 544.174 55.0033 547.174ZM52.0033 541.174 52.0033 538.174 55.0033 538.174 55.0033 541.174ZM52.0033 535.174 52.0033 532.174 55.0033 532.174 55.0033 535.174ZM52.0033 529.174 52.0033 526.174 55.0033 526.174 55.0033 529.174ZM52.0033 523.174 52.0033 520.174 55.0033 520.174 55.0033 523.174ZM52.0033 517.174 52.0033 514.174 55.0033 514.174 55.0033 517.174ZM52.0033 511.174 52.0033 508.174 55.0033 508.174 55.0033 511.174ZM52.0033 505.174 52.0033 502.174 55.0033 502.174 55.0033 505.174ZM52.0033 499.174 52.0033 496.174 55.0033 496.174 55.0033 499.174ZM52.0033 493.174 52.0033 490.174 55.0033 490.174 55.0033 493.174ZM52.0033 487.174 52.0033 484.174 55.0033 484.174 55.0033 487.174ZM52.0033 481.174 52.0033 478.174 55.0033 478.174 55.0033 481.174ZM52.0033 475.174 52.0033 472.174 55.0033 472.174 55.0033 475.174ZM52.0033 469.174 52.0033 466.174 55.0033 466.174 55.0033 469.174ZM52.0033 463.174 52.0033 460.174 55.0033 460.174 55.0033 463.174ZM52.0033 457.174 52.0033 454.174 55.0033 454.174 55.0033 457.174ZM52.0033 451.174 52.0033 448.174 55.0033 448.174 55.0033 451.174ZM52.0033 445.174 52.0033 442.174 55.0033 442.174 55.0033 445.174ZM52.0033 439.174 52.0033 436.174 55.0033 436.174 55.0033 439.174ZM52.0033 433.174 52.0033 430.174 55.0033 430.174 55.0033 433.174ZM52.0033 427.174 52.0033 424.174 55.0033 424.174 55.0033 427.174ZM52.0033 421.174 52.0033 418.174 55.0033 418.174 55.0033 421.174ZM52.0033 415.174 52.0033 412.174 55.0033 412.174 55.0033 415.174ZM52.0033 409.174 52.0033 406.174 55.0033 406.174 55.0033 409.174ZM52.0033 403.174 52.0033 400.174 55.0033 400.174 55.0033 403.174ZM52.0033 397.174 52.0033 394.174 55.0033 394.174 55.0033 397.174ZM52.0033 391.174 52.0033 388.174 55.0033 388.174 55.0033 391.174ZM52.0033 385.174 52.0033 382.174 55.0033 382.174 55.0033 385.174ZM52.0033 379.174 52.0033 376.174 55.0033 376.174 55.0033 379.174ZM52.0033 373.174 52.0033 370.174 55.0033 370.174 55.0033 373.174ZM52.0033 367.174 52.0033 364.174 55.0033 364.174 55.0033 367.174ZM52.0033 361.174 52.0033 358.174 55.0033 358.174 55.0033 361.174ZM52.0033 355.174 52.0033 352.174 55.0033 352.174 55.0033 355.174ZM52.0033 349.174 52.0033 346.174 55.0033 346.174 55.0033 349.174ZM52.0033 343.174 52.0033 340.174 55.0033 340.174 55.0033 343.174ZM52.0033 337.174 52.0033 334.174 55.0033 334.174 55.0033 337.174ZM52.0033 331.174 52.0033 328.174 55.0033 328.174 55.0033 331.174ZM52.0033 325.174 52.0033 322.174 55.0033 322.174 55.0033 325.174ZM52.0033 319.174 52.0033 316.174 55.0033 316.174 55.0033 319.174ZM52.0033 313.174 52.0033 310.174 55.0033 310.174 55.0033 313.174ZM52.0033 307.174 52.0033 304.174 55.0033 304.174 55.0033 307.174ZM52.0033 301.174 52.0033 298.174 55.0033 298.174 55.0033 301.174ZM52.0033 295.174 52.0033 292.174 55.0033 292.174 55.0033 295.174ZM52.0033 289.174 52.0033 286.174 55.0033 286.174 55.0033 289.174ZM52.0033 283.174 52.0033 280.174 55.0033 280.174 55.0033 283.174ZM52.0033 277.174 52.0033 274.174 55.0033 274.174 55.0033 277.174ZM52.0033 271.174 52.0033 268.174 55.0033 268.174 55.0033 271.174ZM52.0033 265.174 52.0033 262.174 55.0033 262.174 55.0033 265.174ZM52.0033 259.174 52.0033 256.174 55.0033 256.174 55.0033 259.174ZM52.0033 253.174 52.0033 250.174 55.0033 250.174 55.0033 253.174ZM52.0033 247.174 52.0033 244.174 55.0033 244.174 55.0033 247.174ZM52.0033 241.174 52.0033 238.174 55.0033 238.174 55.0033 241.174ZM52.0033 235.174 52.0033 232.174 55.0033 232.174 55.0033 235.174ZM52.0033 229.174 52.0033 226.174 55.0033 226.174 55.0033 229.174ZM52.0033 223.174 52.0033 220.174 55.0033 220.174 55.0033 223.174ZM52.0033 217.174 52.0033 214.174 55.0033 214.174 55.0033 217.174ZM52.0033 211.174 52.0033 208.174 55.0033 208.174 55.0033 211.174ZM52.0033 205.174 52.0033 202.174 55.0033 202.174 55.0033 205.174ZM52.0033 199.174 52.0033 196.174 55.0033 196.174 55.0033 199.174ZM52.0033 193.174 52.0033 190.174 55.0033 190.174 55.0033 193.174ZM52.0033 187.174 52.0033 184.174 55.0033 184.174 55.0033 187.174ZM52.0033 181.174 52.0033 178.174 55.0033 178.174 55.0033 181.174ZM52.0033 175.174 52.0033 172.174 55.0033 172.174 55.0033 175.174ZM54.8297 169 57.8297 169 57.8297 172 54.8297 172ZM60.8297 169 63.8297 169 63.8297 172 60.8297 172ZM66.8297 169 69.8297 169 69.8297 172 66.8297 172ZM68.5001 166 77.5001 170.5 68.5001 175Z" fill="#D092A7"/><path d="M1.5-1.4554e-05 1.50024 24.9612-1.49976 24.9612-1.5 1.4554e-05ZM4.50023 23.4612 0.000314961 32.4612-4.49977 23.4612Z" fill="#D092A7" transform="matrix(-1 -8.74228e-08 -8.74228e-08 1 1041.5 478.5)"/><path d="M1043 563.5 1043 593.248 1040 593.248 1040 563.5ZM1046 591.748 1041.5 600.748 1037 591.748Z" fill="#D092A7"/><text font-family="Noto Serif CJK JP,Noto Serif CJK JP_MSFontService,sans-serif" font-weight="500" font-size="27" transform="translate(887.07 187)">データあり<tspan x="-217.412" y="304">データなし</tspan></text><path d="M0-1.5 173.794-1.5 173.794 780.823 172.294 779.323 184.619 779.323 184.619 782.323 170.794 782.323 170.794 0 172.294 1.5 0 1.5ZM183.119 776.323 192.119 780.823 183.119 785.323Z" fill="#D092A7" transform="matrix(-4.37114e-08 1 1 4.37114e-08 260.5 408.5)"/><text font-family="Noto Serif CJK JP,Noto Serif CJK JP_MSFontService,sans-serif" font-weight="500" font-size="24" transform="translate(269.658 439)">NO<tspan x="134.164" y="-110">YES</tspan></text></g></svg>
