<svg width="1280" height="720" xmlns="http://www.w3.org/2000/svg" xmlns:xlink="http://www.w3.org/1999/xlink" overflow="hidden"><defs><clipPath id="clip0"><path d="M0 0 1280 0 1280 720 0 720Z" fill-rule="evenodd" clip-rule="evenodd"/></clipPath></defs><g clip-path="url(#clip0)"><rect x="0" y="0" width="1280" height="720" fill="#FFFFFF"/><rect x="120.5" y="143.5" width="250" height="64" stroke="#9C85C0" stroke-miterlimit="8" fill="#C4B6D9"/><text fill="#FFFFFF" font-family="Noto Serif CJK JP,Noto Serif CJK JP_MSFontService,sans-serif" font-weight="500" font-size="24" transform="translate(184.707 183)">海岸線描画</text><rect x="119.5" y="323.5" width="250" height="64" stroke="#9C85C0" stroke-miterlimit="8" fill="#C4B6D9"/><text fill="#FFFFFF" font-family="Noto Serif CJK JP,Noto Serif CJK JP_MSFontService,sans-serif" font-weight="500" font-size="24" transform="translate(148.236 349)">カズハゴンドウの<tspan x="60" y="29">散布図</tspan></text><rect x="119.5" y="503.5" width="250" height="64" stroke="#9C85C0" stroke-miterlimit="8" fill="#C4B6D9"/><text fill="#FFFFFF" font-family="Noto Serif CJK JP,Noto Serif CJK JP_MSFontService,sans-serif" font-weight="500" font-size="24" transform="translate(148.236 543)">スナメリの散布図</text><rect x="515.5" y="143.5" width="250" height="64" stroke="#9C85C0" stroke-miterlimit="8" fill="#C4B6D9"/><text fill="#FFFFFF" font-family="Noto Serif CJK JP,Noto Serif CJK JP_MSFontService,sans-serif" font-weight="500" font-size="24" transform="translate(532 169)">シナウスイロイルカ<tspan x="60" y="29">の散布図</tspan></text><rect x="514.5" y="263.5" width="251" height="65" stroke="#9C85C0" stroke-miterlimit="8" fill="#C4B6D9"/><text fill="#FFFFFF" font-family="Noto Serif CJK JP,Noto Serif CJK JP_MSFontService,sans-serif" font-weight="500" font-size="24" transform="translate(531.53 304)">スジイルカの散布図</text><rect x="514.5" y="403.5" width="251" height="65" stroke="#9C85C0" stroke-miterlimit="8" fill="#C4B6D9"/><text fill="#FFFFFF" font-family="Noto Serif CJK JP,Noto Serif CJK JP_MSFontService,sans-serif" font-weight="500" font-size="24" transform="translate(535.029 444)">X軸方向の切り出し</text><rect x="514.5" y="524.5" width="251" height="64" stroke="#9C85C0" stroke-miterlimit="8" fill="#C4B6D9"/><text fill="#FFFFFF" font-family="Noto Serif CJK JP,Noto Serif CJK JP_MSFontService,sans-serif" font-weight="500" font-size="24" transform="translate(535.196 565)">Y<tspan x="16.6667" y="0">軸方向の切り出し</tspan></text><path d="M1.49999-0.00610183 1.94013 108.193-1.05984 108.206-1.49999 0.00610183ZM4.93401 106.681 0.470656 115.7-4.06592 106.718Z" fill="#9C85C0" transform="matrix(-1 -8.74228e-08 -8.74228e-08 1 244.971 207.5)"/><path d="M246 567.859 246 591.861 244.5 590.361 442.382 590.361 440.882 591.861 440.882 117.999 641.764 117.999 641.764 136 638.764 136 638.764 119.499 640.264 120.999 442.382 120.999 443.882 119.499 443.882 593.361 243 593.361 243 567.859ZM644.764 134.5 640.264 143.5 635.764 134.5Z" fill="#9C85C0"/><path d="M1.49995-0.0125104 1.90774 48.8797-1.09216 48.9047-1.49995 0.0125104ZM4.89512 47.3547 0.470341 56.3919-4.10456 47.4298Z" fill="#9C85C0" transform="matrix(-1 -8.74228e-08 -8.74228e-08 1 640.97 207.5)"/><path d="M1.5-2.0796e-06 1.50009 68.2263-1.49991 68.2263-1.5 2.0796e-06ZM4.50009 66.7263 0.000104987 75.7263-4.49991 66.7263Z" fill="#9C85C0" transform="matrix(-1 -8.74228e-08 -8.74228e-08 1 640.5 328.5)"/><path d="M1.5-2.7926e-06 1.50009 48.8919-1.49991 48.8919-1.5 2.7926e-06ZM4.50009 47.3919 0.000104987 56.3919-4.49991 47.3919Z" fill="#9C85C0" transform="matrix(-1 -8.74228e-08 -8.74228e-08 1 640.5 468.5)"/><path d="M918.5 242.5 960.167 219.5 1126.83 219.5C1149.85 219.5 1168.5 229.798 1168.5 242.5 1168.5 255.203 1149.85 265.5 1126.83 265.5L960.167 265.5Z" stroke="#9C85C0" stroke-miterlimit="8" fill="#C4B6D9" fill-rule="evenodd"/><text fill="#FFFFFF" font-family="Noto Serif CJK JP,Noto Serif CJK JP_MSFontService,sans-serif" font-weight="500" font-size="24" transform="translate(970.824 250)">グラフの表示</text><path d="M958.72 443.5 1128.28 443.5C1150.49 443.5 1168.5 457.379 1168.5 474.5 1168.5 491.621 1150.49 505.5 1128.28 505.5L958.72 505.5C936.507 505.5 918.5 491.621 918.5 474.5 918.5 457.379 936.507 443.5 958.72 443.5Z" stroke="#9C85C0" stroke-miterlimit="8" fill="#C4B6D9" fill-rule="evenodd"/><text fill="#FFFFFF" font-family="Noto Serif CJK JP,Noto Serif CJK JP_MSFontService,sans-serif" font-weight="500" font-size="24" transform="translate(1018.82 483)">終了</text><path d="M246 387.5 246 495.7 243 495.7 243 387.5ZM249 494.2 244.5 503.2 240 494.2Z" fill="#9C85C0"/><path d="M642 589.308 642 613.309 640.5 611.809 842.147 611.809 840.647 613.309 840.647 194 1045.29 194 1045.29 212 1042.29 212 1042.29 195.5 1043.79 197 842.147 197 843.647 195.5 843.647 614.809 639 614.809 639 589.308ZM1048.29 210.5 1043.79 219.5 1039.29 210.5Z" fill="#9C85C0"/><path d="M1.5-5.30457e-06 1.5006 170.626-1.4994 170.626-1.5 5.30457e-06ZM4.5006 169.126 0.000629921 178.126-4.4994 169.126Z" fill="#9C85C0" transform="matrix(-1 -8.74228e-08 -8.74228e-08 1 1043.5 265.5)"/></g></svg>