<svg width="1280" height="720" xmlns="http://www.w3.org/2000/svg" xmlns:xlink="http://www.w3.org/1999/xlink" overflow="hidden"><defs><clipPath id="clip0"><path d="M0 0 1280 0 1280 720 0 720Z" fill-rule="evenodd" clip-rule="evenodd"/></clipPath></defs><g clip-path="url(#clip0)"><rect x="0" y="0" width="1280" height="720" fill="#FFFFFF"/><rect x="755" y="0" width="525" height="720" fill="#E6ECF3"/><rect x="296" y="0" width="465" height="720" fill="#EDF0E9"/><path d="M761 360 761 0 832 360Z" fill="#EDF0E9" fill-rule="evenodd"/><path d="M0 360 0 0 70 360Z" fill="#EDF0E9" fill-rule="evenodd" transform="matrix(1 0 0 -1 761 720)"/><rect x="0" y="0" width="465" height="720" fill="#FDEDDA"/><path d="M465 360 465 0 536 360Z" fill="#FDEDDA" fill-rule="evenodd"/><path d="M0 360 0 0 70 360Z" fill="#FDEDDA" fill-rule="evenodd" transform="matrix(1 0 0 -1 465 720)"/><path d="M19.5001 280.334C19.5001 273.246 25.2458 267.5 32.3336 267.5L404.666 267.5C411.754 267.5 417.5 273.246 417.5 280.334L417.5 331.666C417.5 338.754 411.754 344.5 404.666 344.5L32.3336 344.5C25.2458 344.5 19.5001 338.754 19.5001 331.666Z" stroke="#F3A447" stroke-miterlimit="8" fill="#F3A447" fill-rule="evenodd"/><text fill="#FFFFFF" font-family="Noto Serif CJK JP,Noto Serif CJK JP_MSFontService,sans-serif" font-weight="700" font-size="32" transform="translate(38.4754 317)">シャピロ・ウィルク検定</text><path d="M581.5 210.834C581.5 204.574 586.574 199.5 592.834 199.5L688.167 199.5C694.426 199.5 699.5 204.574 699.5 210.834L699.5 256.167C699.5 262.426 694.426 267.5 688.167 267.5L592.834 267.5C586.574 267.5 581.5 262.426 581.5 256.167Z" stroke="#78846A" stroke-miterlimit="8" fill="#A5B592" fill-rule="evenodd"/><text fill="#FFFFFF" font-family="Noto Serif CJK JP,Noto Serif CJK JP_MSFontService,sans-serif" font-weight="500" font-size="37" transform="translate(590.259 247)">F<tspan x="23.6666" y="0">検定</tspan></text><path d="M852.5 142.667C852.5 137.604 856.604 133.5 861.667 133.5L1212.33 133.5C1217.4 133.5 1221.5 137.604 1221.5 142.667L1221.5 179.333C1221.5 184.396 1217.4 188.5 1212.33 188.5L861.667 188.5C856.604 188.5 852.5 184.396 852.5 179.333Z" stroke="#809EC2" stroke-miterlimit="8" fill="#809EC2" fill-rule="evenodd"/><text fill="#FFFFFF" font-family="Noto Serif CJK JP,Noto Serif CJK JP_MSFontService,sans-serif" font-weight="700" font-size="32" transform="translate(861.726 169)">スチューデントの<tspan x="262.667" y="0">t</tspan><tspan x="275" y="0">検定</tspan></text><path d="M902.5 303.667C902.5 298.604 906.604 294.5 911.667 294.5L1164.33 294.5C1169.4 294.5 1173.5 298.604 1173.5 303.667L1173.5 340.333C1173.5 345.396 1169.4 349.5 1164.33 349.5L911.667 349.5C906.604 349.5 902.5 345.396 902.5 340.333Z" stroke="#809EC2" stroke-miterlimit="8" fill="#809EC2" fill-rule="evenodd"/><text fill="#FFFFFF" font-family="Noto Serif CJK JP,Noto Serif CJK JP_MSFontService,sans-serif" font-weight="700" font-size="32" transform="translate(911.295 333)">ウェルチのt<tspan x="176.5" y="0">検定</tspan></text><path d="M860.5 433.334C860.5 425.141 867.141 418.5 875.334 418.5L1215.67 418.5C1223.86 418.5 1230.5 425.141 1230.5 433.334L1230.5 492.666C1230.5 500.859 1223.86 507.5 1215.67 507.5L875.334 507.5C867.141 507.5 860.5 500.859 860.5 492.666Z" stroke="#809EC2" stroke-miterlimit="8" fill="#809EC2" fill-rule="evenodd"/><text fill="#FFFFFF" font-family="Noto Serif CJK JP,Noto Serif CJK JP_MSFontService,sans-serif" font-weight="700" font-size="32" transform="translate(881.775 455)">マン・ホイットニーの<tspan x="118.167" y="38">U</tspan><tspan x="144.5" y="38">検定</tspan><tspan fill="#000000" font-size="37" x="-795.526" y="-374">データの正規性</tspan><tspan fill="#000000" font-size="37" x="-306.022" y="-374">等分散</tspan><tspan fill="#000000" font-size="37" x="55.0168" y="-374">母平均の差</tspan></text><path d="M217 267.507 217 232 573.382 232 573.382 235 218.5 235 220 233.5 220 267.507ZM571.881 229 580.881 233.5 571.881 238Z"/><path d="M0-1.5 120.194-1.5 120.194 634.299 117.194 634.299 117.194 0 118.694 1.5 0 1.5ZM123.194 632.799 118.694 641.799 114.194 632.799Z" transform="matrix(-4.37114e-08 1 1 4.37114e-08 218.5 344.5)"/><path d="M639 206.162 639 156 845.126 156 845.126 159 640.5 159 642 157.5 642 206.162ZM843.626 153 852.626 157.5 843.626 162Z"/><path d="M0-1.5 55.8863-1.5 55.8863 254.195 52.8863 254.195 52.8863 0 54.3863 1.5 0 1.5ZM58.8863 252.695 54.3863 261.695 49.8863 252.695Z" transform="matrix(-4.37114e-08 1 1 4.37114e-08 640.5 267.5)"/><text font-family="Noto Serif CJK JP,Noto Serif CJK JP_MSFontService,sans-serif" font-weight="500" font-size="27" transform="translate(221.726 216)">正規性あり<tspan x="0" y="291">正規性なし</tspan><tspan x="417.632" y="-70">等分散である</tspan><tspan x="417.632" y="150">等分散でない</tspan></text></g></svg>