<svg width="1280" height="720" xmlns="http://www.w3.org/2000/svg" xmlns:xlink="http://www.w3.org/1999/xlink" overflow="hidden"><defs><clipPath id="clip0"><path d="M0 0 1280 0 1280 720 0 720Z" fill-rule="evenodd" clip-rule="evenodd"/></clipPath></defs><g clip-path="url(#clip0)"><rect x="0" y="0" width="1280" height="720" fill="#FFFFFF"/><path d="M334.588 124.264 578.353 124.264 578.353 172.264 334.588 172.264Z" fill="#DED9E8" fill-rule="evenodd"/><path d="M578.353 124.264 822.118 124.264 822.118 172.264 578.353 172.264Z" fill="#DED9E8" fill-rule="evenodd"/><path d="M822.118 124.264 1065.88 124.264 1065.88 172.264 822.118 172.264Z" fill="#DED9E8" fill-rule="evenodd"/><path d="M578.353 123.597 578.353 172.93" stroke="#FFFFFF" stroke-width="1.33333" stroke-linejoin="round" stroke-miterlimit="10" fill="none" fill-rule="evenodd"/><path d="M822.118 123.597 822.118 172.93" stroke="#FFFFFF" stroke-width="1.33333" stroke-linejoin="round" stroke-miterlimit="10" fill="none" fill-rule="evenodd"/><path d="M334.588 123.597 334.588 172.93" stroke="#FFFFFF" stroke-width="1.33333" stroke-linejoin="round" stroke-miterlimit="10" fill="none" fill-rule="evenodd"/><path d="M1065.88 123.597 1065.88 172.93" stroke="#FFFFFF" stroke-width="1.33333" stroke-linejoin="round" stroke-miterlimit="10" fill="none" fill-rule="evenodd"/><path d="M333.922 124.264 1066.55 124.264" stroke="#FFFFFF" stroke-width="1.33333" stroke-linejoin="round" stroke-miterlimit="10" fill="none" fill-rule="evenodd"/><path d="M333.922 172.264 1066.55 172.264" stroke="#FFFFFF" stroke-width="1.33333" stroke-linejoin="round" stroke-miterlimit="10" fill="none" fill-rule="evenodd"/><text font-family="Noto Serif CJK JP,Noto Serif CJK JP_MSFontService,sans-serif" font-weight="500" font-size="32" transform="translate(444.887 160)">A<tspan x="244.348" y="0">B</tspan><tspan x="488.029" y="0">C</tspan></text><path d="M109.177 258.954 236.235 258.954 236.235 354.553 109.177 354.553Z" fill="#F6E7CD" fill-rule="evenodd"/><path d="M109.177 354.553 236.235 354.553 236.235 450.153 109.177 450.153Z" fill="#FAF4E8" fill-rule="evenodd"/><path d="M109.177 450.153 236.235 450.153 236.235 545.752 109.177 545.752Z" fill="#F6E7CD" fill-rule="evenodd"/><path d="M108.51 354.553 236.902 354.553" stroke="#FFFFFF" stroke-width="1.33333" stroke-linejoin="round" stroke-miterlimit="10" fill="none" fill-rule="evenodd"/><path d="M108.51 450.153 236.902 450.153" stroke="#FFFFFF" stroke-width="1.33333" stroke-linejoin="round" stroke-miterlimit="10" fill="none" fill-rule="evenodd"/><path d="M109.177 258.288 109.177 546.418" stroke="#FFFFFF" stroke-width="1.33333" stroke-linejoin="round" stroke-miterlimit="10" fill="none" fill-rule="evenodd"/><path d="M236.235 258.288 236.235 546.418" stroke="#FFFFFF" stroke-width="1.33333" stroke-linejoin="round" stroke-miterlimit="10" fill="none" fill-rule="evenodd"/><path d="M108.51 258.954 236.902 258.954" stroke="#FFFFFF" stroke-width="1.33333" stroke-linejoin="round" stroke-miterlimit="10" fill="none" fill-rule="evenodd"/><path d="M108.51 545.752 236.902 545.752" stroke="#FFFFFF" stroke-width="1.33333" stroke-linejoin="round" stroke-miterlimit="10" fill="none" fill-rule="evenodd"/><text font-family="Noto Serif CJK JP,Noto Serif CJK JP_MSFontService,sans-serif" font-weight="500" font-size="32" transform="translate(163.539 319)">x<tspan x="0.166611" y="95">y</tspan><tspan x="1.16661" y="191">z</tspan></text><path d="M267 389.75 289.5 389.75 289.5 377 312 402.5 289.5 428 289.5 415.25 267 415.25Z" fill="#F8C891" fill-rule="evenodd"/><path d="M675 214 687.75 214 687.75 190 713.25 190 713.25 214 726 214 700.5 238Z" fill="#C4B6D9" fill-rule="evenodd"/><path d="M334.588 258.954 578.353 258.954 578.353 354.553 334.588 354.553Z" fill="#E1E5DC" fill-rule="evenodd"/><path d="M578.353 258.954 822.118 258.954 822.118 354.553 578.353 354.553Z" fill="#E1E5DC" fill-rule="evenodd"/><path d="M822.118 258.954 1065.88 258.954 1065.88 354.553 822.118 354.553Z" fill="#E1E5DC" fill-rule="evenodd"/><path d="M334.588 354.553 578.353 354.553 578.353 450.153 334.588 450.153Z" fill="#F0F3EE" fill-rule="evenodd"/><path d="M578.353 354.553 822.118 354.553 822.118 450.153 578.353 450.153Z" fill="#F0F3EE" fill-rule="evenodd"/><path d="M822.118 354.553 1065.88 354.553 1065.88 450.153 822.118 450.153Z" fill="#F0F3EE" fill-rule="evenodd"/><path d="M334.588 450.153 578.353 450.153 578.353 545.752 334.588 545.752Z" fill="#E1E5DC" fill-rule="evenodd"/><path d="M578.353 450.153 822.118 450.153 822.118 545.752 578.353 545.752Z" fill="#E1E5DC" fill-rule="evenodd"/><path d="M822.118 450.153 1065.88 450.153 1065.88 545.752 822.118 545.752Z" fill="#E1E5DC" fill-rule="evenodd"/><path d="M578.353 258.288 578.353 546.418" stroke="#FFFFFF" stroke-width="1.33333" stroke-linejoin="round" stroke-miterlimit="10" fill="none" fill-rule="evenodd"/><path d="M822.118 258.288 822.118 546.418" stroke="#FFFFFF" stroke-width="1.33333" stroke-linejoin="round" stroke-miterlimit="10" fill="none" fill-rule="evenodd"/><path d="M333.922 354.553 1066.55 354.553" stroke="#FFFFFF" stroke-width="1.33333" stroke-linejoin="round" stroke-miterlimit="10" fill="none" fill-rule="evenodd"/><path d="M333.922 450.153 1066.55 450.153" stroke="#FFFFFF" stroke-width="1.33333" stroke-linejoin="round" stroke-miterlimit="10" fill="none" fill-rule="evenodd"/><path d="M334.588 258.288 334.588 546.418" stroke="#FFFFFF" stroke-width="1.33333" stroke-linejoin="round" stroke-miterlimit="10" fill="none" fill-rule="evenodd"/><path d="M1065.88 258.288 1065.88 546.418" stroke="#FFFFFF" stroke-width="1.33333" stroke-linejoin="round" stroke-miterlimit="10" fill="none" fill-rule="evenodd"/><path d="M333.922 258.954 1066.55 258.954" stroke="#FFFFFF" stroke-width="1.33333" stroke-linejoin="round" stroke-miterlimit="10" fill="none" fill-rule="evenodd"/><path d="M333.922 545.752 1066.55 545.752" stroke="#FFFFFF" stroke-width="1.33333" stroke-linejoin="round" stroke-miterlimit="10" fill="none" fill-rule="evenodd"/><text font-family="Noto Serif CJK JP,Noto Serif CJK JP_MSFontService,sans-serif" font-weight="500" font-size="24" transform="translate(440.804 315)">Ax<tspan x="244.408" y="0">Bx</tspan><tspan x="487.946" y="0">Cx</tspan><tspan x="0.790009" y="96">Ay</tspan><tspan x="244.538" y="96">By</tspan><tspan x="488.113" y="96">Cy</tspan><tspan x="0.916687" y="192">Az</tspan><tspan x="245.181" y="192">Bz</tspan><tspan x="488.863" y="192">Cz</tspan></text></g></svg>