<svg width="1280" height="720" xmlns="http://www.w3.org/2000/svg" xmlns:xlink="http://www.w3.org/1999/xlink" overflow="hidden"><defs><clipPath id="clip0"><path d="M0 0 1280 0 1280 720 0 720Z" fill-rule="evenodd" clip-rule="evenodd"/></clipPath></defs><g clip-path="url(#clip0)"><rect x="0" y="0" width="1280" height="720" fill="#FFFFFF"/><path d="M260 27.5001 769 27.5001 795.5 54.0004 795.5 80.5001 795.5 80.5001 233.5 80.5001 233.5 80.5001 233.5 54.0004Z" stroke="#9C85C0" stroke-miterlimit="8" fill="#C4B6D9" fill-rule="evenodd"/><text fill="#FFFFFF" font-family="Noto Serif CJK JP,Noto Serif CJK JP_MSFontService,sans-serif" font-weight="500" font-size="24" transform="translate(449.702 69)">i<tspan x="14" y="0">= 0,</tspan><tspan x="61.3333" y="0">1,</tspan><tspan x="88.5" y="0">2</tspan><tspan x="101.667" y="0">,</tspan><tspan x="115.667" y="0">3</tspan></text><rect x="230.5" y="139.5" width="250" height="68" stroke="#9C85C0" stroke-miterlimit="8" fill="#C4B6D9"/><text fill="#FFFFFF" font-family="Noto Serif CJK JP,Noto Serif CJK JP_MSFontService,sans-serif" font-weight="500" font-size="24" transform="translate(242.212 167)">2<tspan x="13.1667" y="0">×</tspan>2<tspan x="50.3333" y="0">の</tspan>i<tspan x="82.1667" y="0">番目にグラフ</tspan><tspan x="29.0867" y="29">描画領域を追加</tspan></text><rect x="230.5" y="236.5" width="250" height="65" stroke="#9C85C0" stroke-miterlimit="8" fill="#C4B6D9"/><text fill="#FFFFFF" font-family="Noto Serif CJK JP,Noto Serif CJK JP_MSFontService,sans-serif" font-weight="500" font-size="24" transform="translate(295.295 277)">海岸線描画</text><rect x="230.5" y="339.5" width="250" height="64" stroke="#9C85C0" stroke-miterlimit="8" fill="#C4B6D9"/><text fill="#FFFFFF" font-family="Noto Serif CJK JP,Noto Serif CJK JP_MSFontService,sans-serif" font-weight="500" font-size="24" transform="translate(259.295 365)">カズハゴンドウの<tspan x="60" y="29">散布図</tspan></text><rect x="230.5" y="441.5" width="250" height="64" stroke="#9C85C0" stroke-miterlimit="8" fill="#C4B6D9"/><text fill="#FFFFFF" font-family="Noto Serif CJK JP,Noto Serif CJK JP_MSFontService,sans-serif" font-weight="500" font-size="24" transform="translate(259.295 481)">スナメリの散布図</text><rect x="545.5" y="185.5" width="251" height="64" stroke="#9C85C0" stroke-miterlimit="8" fill="#C4B6D9"/><text fill="#FFFFFF" font-family="Noto Serif CJK JP,Noto Serif CJK JP_MSFontService,sans-serif" font-weight="500" font-size="24" transform="translate(562.589 211)">シナウスイロイルカ<tspan x="60" y="29">の散布図</tspan></text><rect x="545.5" y="275.5" width="251" height="64" stroke="#9C85C0" stroke-miterlimit="8" fill="#C4B6D9"/><text fill="#FFFFFF" font-family="Noto Serif CJK JP,Noto Serif CJK JP_MSFontService,sans-serif" font-weight="500" font-size="24" transform="translate(562.589 315)">スジイルカの散布図</text><rect x="545.5" y="378.5" width="250" height="65" stroke="#9C85C0" stroke-miterlimit="8" fill="#C4B6D9"/><text fill="#FFFFFF" font-family="Noto Serif CJK JP,Noto Serif CJK JP_MSFontService,sans-serif" font-weight="500" font-size="24" transform="translate(565.618 419)">X軸方向の切り出し</text><rect x="545.5" y="478.5" width="250" height="64" stroke="#9C85C0" stroke-miterlimit="8" fill="#C4B6D9"/><text fill="#FFFFFF" font-family="Noto Serif CJK JP,Noto Serif CJK JP_MSFontService,sans-serif" font-weight="500" font-size="24" transform="translate(565.785 518)">Y<tspan x="16.6667" y="0">軸方向の切り出し</tspan></text><path d="M1.5-1.08248e-05 1.50016 21.5963-1.49984 21.5963-1.5 1.08248e-05ZM4.50014 20.0962 0.000209974 29.0963-4.49985 20.0963Z" fill="#9C85C0" transform="matrix(-1 -8.74228e-08 -8.74228e-08 1 355.5 207.5)"/><path d="M1.5-4.1305e-06 1.50008 30.6262-1.49992 30.6262-1.5 4.1305e-06ZM4.50008 29.1262 0.000104987 38.1262-4.49992 29.1262Z" fill="#9C85C0" transform="matrix(-1 -8.74228e-08 -8.74228e-08 1 355.5 301.5)"/><path d="M357 505.257 357 529.258 355.5 527.758 513.148 527.758 511.648 529.258 511.648 159.999 672.295 159.999 672.295 178 669.295 178 669.295 161.499 670.795 162.999 513.148 162.999 514.648 161.499 514.648 530.758 354 530.758 354 505.257ZM675.295 176.5 670.795 185.5 666.295 176.5Z" fill="#9C85C0"/><path d="M673 249.5 673 267.143 670 267.143 670 249.5ZM676 265.643 671.5 274.643 667 265.643Z" fill="#9C85C0"/><path d="M1.49989-0.0178643 1.88133 32.0079-1.11845 32.0437-1.49989 0.0178643ZM4.86326 30.4723 0.470761 39.5252-4.13611 30.5795Z" fill="#9C85C0" transform="matrix(-1 -8.74228e-08 -8.74228e-08 1 670.971 339.5)"/><path d="M672 443.5 672 470.916 669 470.916 669 443.5ZM675 469.416 670.5 478.416 666 469.416Z" fill="#9C85C0"/><path d="M766 647.5 255 647.5 228.5 621 228.5 594.5 228.5 594.5 792.5 594.5 792.5 594.5 792.5 621Z" stroke="#9C85C0" stroke-miterlimit="8" fill="#C4B6D9" fill-rule="evenodd"/><path d="M918.5 187 960.167 163.5 1126.83 163.5C1149.85 163.5 1168.5 174.021 1168.5 187 1168.5 199.979 1149.85 210.5 1126.83 210.5L960.167 210.5Z" stroke="#9C85C0" stroke-miterlimit="8" fill="#C4B6D9" fill-rule="evenodd"/><text fill="#FFFFFF" font-family="Noto Serif CJK JP,Noto Serif CJK JP_MSFontService,sans-serif" font-weight="500" font-size="24" transform="translate(970.822 195)">グラフの表示</text><path d="M958.72 443.5 1128.28 443.5C1150.49 443.5 1168.5 457.379 1168.5 474.5 1168.5 491.621 1150.49 505.5 1128.28 505.5L958.72 505.5C936.507 505.5 918.5 491.621 918.5 474.5 918.5 457.379 936.507 443.5 958.72 443.5Z" stroke="#9C85C0" stroke-miterlimit="8" fill="#C4B6D9" fill-rule="evenodd"/><text fill="#FFFFFF" font-family="Noto Serif CJK JP,Noto Serif CJK JP_MSFontService,sans-serif" font-weight="500" font-size="24" transform="translate(1018.82 483)">終了</text><path d="M1.5-4.21807e-06 1.50008 29.8347-1.49992 29.8347-1.5 4.21807e-06ZM4.50008 28.3347 0.000104987 37.3347-4.49992 28.3347Z" fill="#9C85C0" transform="matrix(-1 -8.74228e-08 -8.74228e-08 1 355.5 403.5)"/><path d="M512 646.796 512 670.797 510.5 669.297 855.442 669.297 853.942 670.797 853.942 138 1044.7 138 1044.7 156 1041.7 156 1041.7 139.5 1043.2 141 855.442 141 856.942 139.5 856.942 672.297 509 672.297 509 646.796ZM1047.7 154.5 1043.2 163.5 1038.7 154.5Z" fill="#9C85C0"/><path d="M672 542.5 672 569.996 510.5 569.996 512 568.496 512 586.992 509 586.992 509 566.996 670.5 566.996 669 568.496 669 542.5ZM515 585.492 510.5 594.492 506 585.492Z" fill="#9C85C0"/><path d="M1045 210.5 1045 436.366 1042 436.366 1042 210.5ZM1048 434.866 1043.5 443.866 1039 434.866Z" fill="#9C85C0"/><path d="M515.823 80.5001 515.823 111.363 355.5 111.363 357 109.863 357 131.727 354 131.727 354 108.363 514.323 108.363 512.823 109.863 512.823 80.5001ZM360 130.227 355.5 139.227 351 130.227Z" fill="#9C85C0"/><path d="M0 1.5-3 1.5-3-1.5 0-1.5ZM-6 1.5-9 1.5-9-1.5-6-1.5ZM-12 1.5-15 1.5-15-1.5-12-1.5ZM-18 1.5-21 1.5-21-1.5-18-1.5ZM-24 1.5-27 1.5-27-1.5-24-1.5ZM-30 1.5-33 1.5-33-1.5-30-1.5ZM-36 1.5-39 1.5-39-1.5-36-1.5ZM-42 1.5-45 1.5-45-1.5-42-1.5ZM-48 1.5-51 1.5-51-1.5-48-1.5ZM-54 1.5-57 1.5-57-1.5-54-1.5ZM-60 1.5-63 1.5-63-1.5-60-1.5ZM-66 1.5-69 1.5-69-1.5-66-1.5ZM-72 1.5-75 1.5-75-1.5-72-1.5ZM-78 1.5-81 1.5-81-1.5-78-1.5ZM-81.7941 0.705932-81.7941 3.70593-84.7941 3.70593-84.7941 0.705932ZM-81.7941 6.70593-81.7941 9.70593-84.7941 9.70593-84.7941 6.70593ZM-81.7941 12.7059-81.7941 15.7059-84.7941 15.7059-84.7941 12.7059ZM-81.7941 18.7059-81.7941 21.7059-84.7941 21.7059-84.7941 18.7059ZM-81.7941 24.7059-81.7941 27.7059-84.7941 27.7059-84.7941 24.7059ZM-81.7941 30.7059-81.7941 33.7059-84.7941 33.7059-84.7941 30.7059ZM-81.7941 36.7059-81.7941 39.7059-84.7941 39.7059-84.7941 36.7059ZM-81.7941 42.7059-81.7941 45.7059-84.7941 45.7059-84.7941 42.7059ZM-81.7941 48.7059-81.7941 51.7059-84.7941 51.7059-84.7941 48.7059ZM-81.7941 54.7059-81.7941 57.7059-84.7941 57.7059-84.7941 54.7059ZM-81.7941 60.7059-81.7941 63.7059-84.7941 63.7059-84.7941 60.7059ZM-81.7941 66.7059-81.7941 69.7059-84.7941 69.7059-84.7941 66.7059ZM-81.7941 72.7059-81.7941 75.7059-84.7941 75.7059-84.7941 72.7059ZM-81.7941 78.7059-81.7941 81.7059-84.7941 81.7059-84.7941 78.7059ZM-81.7941 84.7059-81.7941 87.7059-84.7941 87.7059-84.7941 84.7059ZM-81.7941 90.7059-81.7941 93.7059-84.7941 93.7059-84.7941 90.7059ZM-81.7941 96.7059-81.7941 99.7059-84.7941 99.7059-84.7941 96.7059ZM-81.7941 102.706-81.7941 105.706-84.7941 105.706-84.7941 102.706ZM-81.7941 108.706-81.7941 111.706-84.7941 111.706-84.7941 108.706ZM-81.7941 114.706-81.7941 117.706-84.7941 117.706-84.7941 114.706ZM-81.7941 120.706-81.7941 123.706-84.7941 123.706-84.7941 120.706ZM-81.7941 126.706-81.7941 129.706-84.7941 129.706-84.7941 126.706ZM-81.7941 132.706-81.7941 135.706-84.7941 135.706-84.7941 132.706ZM-81.7941 138.706-81.7941 141.706-84.7941 141.706-84.7941 138.706ZM-81.7941 144.706-81.7941 147.706-84.7941 147.706-84.7941 144.706ZM-81.7941 150.706-81.7941 153.706-84.7941 153.706-84.7941 150.706ZM-81.7941 156.706-81.7941 159.706-84.7941 159.706-84.7941 156.706ZM-81.7941 162.706-81.7941 165.706-84.7941 165.706-84.7941 162.706ZM-81.7941 168.706-81.7941 171.706-84.7941 171.706-84.7941 168.706ZM-81.7941 174.706-81.7941 177.706-84.7941 177.706-84.7941 174.706ZM-81.7941 180.706-81.7941 183.706-84.7941 183.706-84.7941 180.706ZM-81.7941 186.706-81.7941 189.706-84.7941 189.706-84.7941 186.706ZM-81.7941 192.706-81.7941 195.706-84.7941 195.706-84.7941 192.706ZM-81.7941 198.706-81.7941 201.706-84.7941 201.706-84.7941 198.706ZM-81.7941 204.706-81.7941 207.706-84.7941 207.706-84.7941 204.706ZM-81.7941 210.706-81.7941 213.706-84.7941 213.706-84.7941 210.706ZM-81.7941 216.706-81.7941 219.706-84.7941 219.706-84.7941 216.706ZM-81.7941 222.706-81.7941 225.706-84.7941 225.706-84.7941 222.706ZM-81.7941 228.706-81.7941 231.706-84.7941 231.706-84.7941 228.706ZM-81.7941 234.706-81.7941 237.706-84.7941 237.706-84.7941 234.706ZM-81.7941 240.706-81.7941 243.706-84.7941 243.706-84.7941 240.706ZM-81.7941 246.706-81.7941 249.706-84.7941 249.706-84.7941 246.706ZM-81.7941 252.706-81.7941 255.706-84.7941 255.706-84.7941 252.706ZM-81.7941 258.706-81.7941 261.706-84.7941 261.706-84.7941 258.706ZM-81.7941 264.706-81.7941 267.706-84.7941 267.706-84.7941 264.706ZM-81.7941 270.706-81.7941 273.706-84.7941 273.706-84.7941 270.706ZM-81.7941 276.706-81.7941 279.706-84.7941 279.706-84.7941 276.706ZM-81.7941 282.706-81.7941 285.706-84.7941 285.706-84.7941 282.706ZM-81.7941 288.706-81.7941 291.706-84.7941 291.706-84.7941 288.706ZM-81.7941 294.706-81.7941 297.706-84.7941 297.706-84.7941 294.706ZM-81.7941 300.706-81.7941 303.706-84.7941 303.706-84.7941 300.706ZM-81.7941 306.706-81.7941 309.706-84.7941 309.706-84.7941 306.706ZM-81.7941 312.706-81.7941 315.706-84.7941 315.706-84.7941 312.706ZM-81.7941 318.706-81.7941 321.706-84.7941 321.706-84.7941 318.706ZM-81.7941 324.706-81.7941 327.706-84.7941 327.706-84.7941 324.706ZM-81.7941 330.706-81.7941 333.706-84.7941 333.706-84.7941 330.706ZM-81.7941 336.706-81.7941 339.706-84.7941 339.706-84.7941 336.706ZM-81.7941 342.706-81.7941 345.706-84.7941 345.706-84.7941 342.706ZM-81.7941 348.706-81.7941 351.706-84.7941 351.706-84.7941 348.706ZM-81.7941 354.706-81.7941 357.706-84.7941 357.706-84.7941 354.706ZM-81.7941 360.706-81.7941 363.706-84.7941 363.706-84.7941 360.706ZM-81.7941 366.706-81.7941 369.706-84.7941 369.706-84.7941 366.706ZM-81.7941 372.706-81.7941 375.706-84.7941 375.706-84.7941 372.706ZM-81.7941 378.706-81.7941 381.706-84.7941 381.706-84.7941 378.706ZM-81.7941 384.706-81.7941 387.706-84.7941 387.706-84.7941 384.706ZM-81.7941 390.706-81.7941 393.706-84.7941 393.706-84.7941 390.706ZM-81.7941 396.706-81.7941 399.706-84.7941 399.706-84.7941 396.706ZM-81.7941 402.706-81.7941 405.706-84.7941 405.706-84.7941 402.706ZM-81.7941 408.706-81.7941 411.706-84.7941 411.706-84.7941 408.706ZM-81.7941 414.706-81.7941 417.706-84.7941 417.706-84.7941 414.706ZM-81.7941 420.706-81.7941 423.706-84.7941 423.706-84.7941 420.706ZM-81.7941 426.706-81.7941 429.706-84.7941 429.706-84.7941 426.706ZM-81.7941 432.706-81.7941 435.706-84.7941 435.706-84.7941 432.706ZM-81.7941 438.706-81.7941 441.706-84.7941 441.706-84.7941 438.706ZM-81.7941 444.706-81.7941 447.706-84.7941 447.706-84.7941 444.706ZM-81.7941 450.706-81.7941 453.706-84.7941 453.706-84.7941 450.706ZM-81.7941 456.706-81.7941 459.706-84.7941 459.706-84.7941 456.706ZM-81.7941 462.706-81.7941 465.706-84.7941 465.706-84.7941 462.706ZM-81.7941 468.706-81.7941 471.706-84.7941 471.706-84.7941 468.706ZM-81.7941 474.706-81.7941 477.706-84.7941 477.706-84.7941 474.706ZM-81.7941 480.706-81.7941 483.706-84.7941 483.706-84.7941 480.706ZM-81.7941 486.706-81.7941 489.706-84.7941 489.706-84.7941 486.706ZM-81.7941 492.706-81.7941 495.706-84.7941 495.706-84.7941 492.706ZM-81.7941 498.706-81.7941 501.706-84.7941 501.706-84.7941 498.706ZM-81.7941 504.706-81.7941 507.706-84.7941 507.706-84.7941 504.706ZM-81.7941 510.706-81.7941 513.706-84.7941 513.706-84.7941 510.706ZM-81.7941 516.706-81.7941 519.706-84.7941 519.706-84.7941 516.706ZM-81.7941 522.706-81.7941 525.706-84.7941 525.706-84.7941 522.706ZM-81.7941 528.706-81.7941 531.706-84.7941 531.706-84.7941 528.706ZM-81.7941 534.706-81.7941 537.706-84.7941 537.706-84.7941 534.706ZM-81.7941 540.706-81.7941 543.706-84.7941 543.706-84.7941 540.706ZM-81.7941 546.706-81.7941 549.706-84.7941 549.706-84.7941 546.706ZM-81.7941 552.706-81.7941 555.706-84.7941 555.706-84.7941 552.706ZM-81.7941 558.706-81.7941 561.706-84.7941 561.706-84.7941 558.706ZM-81.7941 564.706-81.7941 566.754-83.2941 565.254-82.3421 565.254-82.3421 568.254-84.7941 568.254-84.7941 564.706ZM-79.3421 565.254-76.3421 565.254-76.3421 568.254-79.3421 568.254ZM-73.3421 565.254-70.3421 565.254-70.3421 568.254-73.3421 568.254ZM-67.3421 565.254-64.3421 565.254-64.3421 568.254-67.3421 568.254ZM-61.3422 565.254-58.3422 565.254-58.3422 568.254-61.3422 568.254ZM-55.3422 565.254-52.3422 565.254-52.3422 568.254-55.3422 568.254ZM-49.3422 565.254-46.3422 565.254-46.3422 568.254-49.3422 568.254ZM-43.3422 565.254-40.3422 565.254-40.3422 568.254-43.3422 568.254ZM-37.3422 565.254-34.3422 565.254-34.3422 568.254-37.3422 568.254ZM-31.3422 565.254-28.3422 565.254-28.3422 568.254-31.3422 568.254ZM-25.3422 565.254-22.3422 565.254-22.3422 568.254-25.3422 568.254ZM-19.3422 565.254-16.3422 565.254-16.3422 568.254-19.3422 568.254ZM-13.3422 565.254-10.3422 565.254-10.3422 568.254-13.3422 568.254ZM-7.34215 565.254-4.34215 565.254-4.34215 568.254-7.34215 568.254ZM-3.82352 562.254 5.17648 566.754-3.82352 571.254Z" fill="#9C85C0" transform="matrix(1 -0 -0 -1 228.5 621.254)"/></g></svg>